<?xml version="1.0" encoding="utf-8"?>
<!-- Generator: Adobe Illustrator 24.2.3, SVG Export Plug-In . SVG Version: 6.00 Build 0)  -->
<svg version="1.1" id="Capa_1" xmlns="http://www.w3.org/2000/svg" xmlns:xlink="http://www.w3.org/1999/xlink" x="0px" y="0px"
	 viewBox="0 0 1920 1080" style="enable-background:new 0 0 1920 1080;" xml:space="preserve">
<style type="text/css">
	.st0{fill-rule:evenodd;clip-rule:evenodd;fill:#FFFFFF;}
	.st1{clip-path:url(#SVGID_2_);}
	.st2{fill-rule:evenodd;clip-rule:evenodd;}
	.st3{fill-rule:evenodd;clip-rule:evenodd;fill:#C3AF86;}
	.st4{fill-rule:evenodd;clip-rule:evenodd;fill:#CCA475;}
	.st5{fill-rule:evenodd;clip-rule:evenodd;fill:#808080;}
	.st6{fill-rule:evenodd;clip-rule:evenodd;fill:#D0D0D0;}
	.st7{clip-path:url(#SVGID_4_);}
	.st8{clip-path:url(#SVGID_6_);}
</style>
<path class="st0" d="M1177.8,359.2c-6,8-39.3,35.7-68.4,15.9c-1.4-1-2.5-2.5-3.3-3.9c-0.2-0.4-1-2.3-1-2.3s-6-2.1-8.2-3.3
	c-5.8-2.9-10.9-6.8-15.4-11.3c-4.7-4.7-9.2-10.3-12.9-15.9c-6.4-9.9-9.7-21.6-9.2-33.4c0.2-4.5,1.2-9.9,4.1-13.6
	c4.7-6.4,12.1-3.9,12.1-3.9s-0.6-1.4-0.6-1.7c-0.8-1.7-1.2-3.5-1.6-5.4c-0.6-5.2,2.1-9.7,5.8-13.4c6.4-6.8,18.9-1.2,18.9-1.2
	s-0.4-1.2-0.4-1.4c-0.2-1.4-0.2-3.1,0.2-4.3c1.4-4.5,6.2-7.6,10.3-8.9c8.4-2.7,18.3,3.7,18.3,3.7s0.8-1.7,0.8-1.9
	c0.8-1.7,1.8-3.1,3.5-3.9c5.1-2.9,13.8-2.7,18.9-0.2c8.2,3.7,14,10.7,17.1,19.2c0.8,2.1,1.4,4.1,1.6,6.4c0,0.6,0.2,2.9,0.2,2.9
	s14.8,2.5,18.1,14c3.3,12,2.3,26.6-2.3,37.9c-1.4,3.5-4.1,6.4-5.5,9.9c-0.4,0.8,2.3,2.7,2.7,3.3c1.6,2.1,2.5,4.3,2.1,7
	C1182.7,352.8,1179.8,356.1,1177.8,359.2z"/>
<g>
	<defs>
		<rect id="SVGID_1_" x="1056.7" y="244" width="135.3" height="140"/>
	</defs>
	<clipPath id="SVGID_2_">
		<use xlink:href="#SVGID_1_"  style="overflow:visible;"/>
	</clipPath>
	<g class="st1">
		<path class="st2" d="M1072.1,284.8c-0.4-1.2-0.8-2.7-1-4.1c-0.6-6,2.3-10.9,6.2-15.3c3.1-3.1,7.2-4.1,11.1-3.9
			c2.5,0,4.9,0.6,6.8,1c0-1,0.2-2.3,0.4-3.3c1.6-5.2,7-8.9,11.7-10.3c6.8-2.1,14.4,1,17.9,2.7c1-1.9,2.5-3.5,4.3-4.7
			c5.5-3.1,15-2.9,20.8-0.2c8.8,3.9,14.8,11.3,18.3,20.2c0.8,2.3,1.4,4.5,1.8,6.8c0,0.2,0,0.8,0.2,1.4c2.1,0.6,5.8,1.7,9.5,4.1
			c3.7,2.5,7.2,6,8.6,11.1c3.5,12.4,2.5,27.6-2.5,39.2c-1.2,3.3-3.7,6-5.1,9.1c0.2,0.2,0.4,0.4,0.6,0.6c0.6,0.6,1.2,1,1.4,1.2
			c2.1,2.5,3.1,5.4,2.5,8.7c-0.6,4.1-3.5,7.8-6,11.1c-3.1,4.1-13.4,13.4-26.5,19c-13.4,5.8-29.6,7.6-45-2.7
			c-1.6-1.2-3.1-2.9-3.9-4.7c-0.2-0.2-0.4-1-0.6-1.7c-1.8-0.6-5.8-2.1-7.6-3.1c-6-3.1-11.3-7-16-11.7c-4.9-4.9-9.5-10.5-13.2-16.3
			c-6.8-9.7-10.1-22.1-9.7-34c0.2-4.9,1.4-10.7,4.5-14.8C1064.7,285.8,1069,284.8,1072.1,284.8z M1099.4,264c0,0.2,0.2,1,0.4,1.2
			c0.6,1.9-1.2,2.7-1.2,2.7c-0.6,0.2-1.2,0.2-1.6,0c0,0-4.1-1.9-8.6-1.9c-2.7,0-5.8,0.4-7.8,2.7c-3.1,3.3-5.6,7-5.1,11.8
			c0.2,1.7,0.6,3.1,1.4,4.5c0.2,0.2,0.8,1.9,0.8,1.9c0.2,0.8,0.2,1.6-0.4,2.3c-0.6,0.6-1.4,0.8-2.3,0.6c0,0-6-1.9-9.7,3.1
			c-2.7,3.5-3.5,8.2-3.7,12.4c-0.4,11.1,2.7,22.7,8.6,31.9c3.5,5.6,8,10.9,12.5,15.5c4.3,4.3,9.5,8.2,15,10.9c2.3,1.2,8,3.1,8,3.1
			c0.6,0.2,1,0.6,1.2,1.2c0,0,0.6,1.6,0.8,2.1c0.6,1.2,1.4,2.3,2.5,3.1c14,9.3,28.8,7.4,40.9,2.3c12.3-5.2,21.8-13.8,24.7-17.7
			c2.1-2.7,4.5-5.8,5.1-9.1c0.4-1.9-0.2-3.7-1.4-5.2c-0.4-0.4-2.3-2.1-2.9-3.1c-0.4-1-0.4-1.9-0.2-2.5c1.4-3.5,4.1-6.4,5.5-9.9
			c4.5-10.7,5.6-24.9,2.3-36.5c-1-4.1-3.9-6.8-6.8-8.7c-4.5-2.7-9.5-3.7-9.5-3.7c-1-0.2-1.6-1-1.8-1.9c0,0-0.2-2.3-0.2-2.7
			c-0.2-2.1-0.8-3.9-1.4-5.8c-2.9-7.8-8.2-14.2-16-17.9c-4.7-2.1-12.3-2.5-16.9,0.2c-1.2,0.6-2.1,1.6-2.7,2.9c0,0.2-0.8,1.9-0.8,1.9
			c-0.2,0.6-0.8,1-1.4,1.2c-0.6,0.2-1.2,0-1.8-0.2c0,0-8.8-5.8-16.4-3.5c-3.5,1-7.8,3.7-8.8,7.4C1099.2,261.7,1099.2,263,1099.4,264
			z"/>
	</g>
</g>
<path class="st2" d="M1104.6,371c-1.2-0.2-1.8-1.4-1.6-2.5c0.2-1.2,1.4-1.9,2.5-1.6c0,0,10.9,2.1,30.2-6.2c1-0.4,2.5,0,2.9,1.2
	c0.4,1,0,2.5-1.2,2.9C1116.3,373.4,1104.6,371,1104.6,371z"/>
<path class="st2" d="M1177.1,337.4c0.8-0.8,2.3-0.8,3.1,0c0.8,0.8,0.8,2.3,0,3.1c0,0-7.6,7.6-21.4,14c-1,0.4-2.5,0-2.9-1
	c-0.4-1,0-2.5,1-2.9C1169.9,344.6,1177.1,337.4,1177.1,337.4z"/>
<path class="st2" d="M1074.8,289.5c-1-0.4-1.9-1.6-1.4-2.7s1.6-1.9,2.7-1.4c0,0,17.7,5.8,25.1,18.3c4.5,7.8,6.4,15.5,5.3,21
	c-0.8,4.3-3.1,7.4-7.2,9.1c-9.2,3.7-20.8-3.1-24.9-16.3c-0.4-1,0.2-2.3,1.4-2.7c1-0.4,2.3,0.2,2.7,1.4c3.3,10.5,12.1,16.5,19.3,13.6
	c3.3-1.2,4.7-4.3,4.7-8.2c0-4.5-1.6-10.1-4.9-15.7C1090.8,294.5,1074.8,289.5,1074.8,289.5z"/>
<path class="st2" d="M1103.5,321.3c-1-0.4-1.6-1.7-1.2-2.9c0.4-1,1.6-1.7,2.9-1.2c0,0,5.1,2.1,10.5,0c3.7-1.4,7.6-5.2,10.1-12.8
	c0.4-1,1.6-1.7,2.7-1.4c1,0.4,1.6,1.6,1.4,2.7c-3.1,9.3-8,13.4-12.5,15.5C1110.3,324.2,1103.5,321.3,1103.5,321.3z"/>
<path class="st2" d="M1096.8,267.9c-1-0.4-1.4-1.9-1-2.9s1.8-1.4,2.9-1c0,0,16.2,7.6,22.4,20c0.6,1,0.2,2.5-1,2.9
	c-1,0.6-2.5,0.2-2.9-1C1111.8,274.7,1096.8,267.9,1096.8,267.9z"/>
<path class="st2" d="M1169.1,274.9c1.2,0.4,1.8,1.4,1.4,2.7c-0.4,1.2-1.4,1.9-2.7,1.4c0,0-15.6-4.3-43.2,5.6c-5.3,1.9-8.2,4.1-8.6,7
	c-0.6,2.5,1,4.9,3.9,7.2c6.8,5.4,20.6,8.7,36.8,4.9c1.2-0.2,2.3,0.4,2.7,1.7c0.2,1.2-0.4,2.3-1.6,2.7c-12.7,2.9-24,1.7-32.3-1.2
	c-5.8-2.1-9.9-5.4-12.1-8.7c-1.6-2.7-2.1-5.4-1.4-7.8c1-3.5,4.5-7,11.3-9.5C1152.5,270.2,1169.1,274.9,1169.1,274.9z"/>
<path class="st2" d="M1140.3,305.6c1-0.6,2.3-0.4,3.1,0.6c0.6,1,0.4,2.3-0.6,3.1c0,0-5.6,3.7-9.9,8.9c-2.7,3.1-4.7,6.8-4.3,10.3
	c0.4,3.9,3.9,7.2,12.3,9.9c1,0.4,1.6,1.6,1.4,2.7c-0.4,1-1.6,1.7-2.7,1.4c-10.9-3.5-14.8-8.7-15.2-13.6c-0.6-4.5,2.1-9.5,5.3-13.6
	C1134.2,309.7,1140.3,305.6,1140.3,305.6z"/>
<path class="st2" d="M1125.3,256.8c-1-0.4-1.6-1.7-1-2.9c0.4-1,1.6-1.7,2.9-1c0,0,11.1,4.7,17.1,24.3c0.4,1-0.2,2.3-1.4,2.7
	c-1.2,0.4-2.3-0.2-2.7-1.4C1134.8,261.1,1125.3,256.8,1125.3,256.8z"/>
<path class="st3" d="M1319.8,487c6.6-0.4,11.5-6,11.1-12.6c-0.4-6.6-6-11.5-12.5-11.1c0,0-38.2,2.3-69.1-1c-11.5-1.2-22-3.1-28-6.8
	c-23.6-14.4-47.3-58.7-56.7-88.6c-2.1-6.2-8.6-9.7-15-7.6c-6.2,2.1-9.7,8.7-7.6,15c11.1,34.6,39.9,85.1,67,101.8
	c8,4.9,22,8.2,37.6,10.1C1279.1,489.3,1319.8,487,1319.8,487z"/>
<path class="st2" d="M1319.8,489.1c0,0-40.7,2.5-73.4-1.2c-16-1.9-30.2-5.4-38.4-10.3c-27.5-16.9-56.7-67.8-68-103.1
	c-2.3-7.4,1.6-15.2,9-17.7c7.4-2.3,15.2,1.6,17.7,9.1c9.5,29.5,32.7,73.4,55.9,87.4c5.8,3.5,15.8,5.2,26.9,6.4
	c30.6,3.3,68.7,1,68.7,1c7.8-0.4,14.4,5.4,14.8,13.2C1333.3,482.1,1327.6,488.7,1319.8,489.1z M1319.6,484.7c5.3-0.4,9.5-4.9,9-10.3
	s-4.9-9.5-10.3-9.1c0,0-38.4,2.3-69.5-1c-11.9-1.2-22.6-3.3-28.8-7c-23.8-14.6-47.9-59.6-57.6-89.9c-1.6-5.2-7.2-8-12.1-6.4
	c-5.1,1.6-8,7.2-6.4,12.2c10.9,34.2,39.1,84.1,66.2,100.6c7.8,4.7,21.4,8,36.8,9.7C1279.1,487.2,1319.4,484.9,1319.6,484.7z"/>
<path class="st4" d="M1464.7,844.6c1.8-15.9,12.3-49.7,11.7-50.1c-1.2-0.8-2.1-1.9-3.1-2.9c-3.7-4.3-4.7-9.9-2.3-15.3
	c3.1-6.2,9.9-10.1,16-12.4c14-5.6,29.6-5.8,44.6-4.3c6.8,0.6,16,1.2,21.2,6.4c3.9,3.9,3.5,10.1,1,14.6c-0.6,1.2-3.3,3.3-3.3,4.7
	c0,1.7,1.6,3.3,2.5,4.5c1.6,2.9,3.3,6,4.7,9.1c1,2.5,2.1,4.9,2.7,7.6c0.2,1,0.2,2.9,0.6,3.7c0.6,0.8,31.2,8.2,28.8,47
	c-2.5,41-115.3,22.5-121.9,14.2C1462.8,865.4,1463.9,852.2,1464.7,844.6z"/>
<path class="st2" d="M1468.2,785.1c-0.2-0.4-0.4-0.8-0.4-1.2c0-1.2,1-2.1,2.3-2.1c0.4,0,0.8,0.2,1.2,0.4c0.2,0.2,0.4,0.6,0.8,1.4
	c0.6,1.4,2.3,5.6,7.6,9.3c5.6,3.9,14.6,7.2,29.8,6.4c1.2,0,2.3,0.8,2.3,2.1c0,1.2-0.8,2.3-2.1,2.3c-16.6,0.8-26.5-3.1-32.5-7.2
	C1470.8,792.1,1468.8,786.9,1468.2,785.1z"/>
<path class="st2" d="M1553.7,773.7c0.2-1.2,1.2-2.1,2.5-1.9c1.2,0.2,1.8,1.2,1.8,2.5c-1,5.6-3.9,10.1-7.8,13.4
	c-5.5,4.9-12.5,7.6-17.1,8.9c-1.2,0.2-2.3-0.4-2.7-1.4c-0.2-1.2,0.4-2.3,1.4-2.7c3.3-0.8,8.4-2.7,12.7-5.8
	C1549,783.6,1552.7,779.5,1553.7,773.7z"/>
<path class="st2" d="M1486.1,844c0,0.2-0.2,0.2-0.2,0.4c-0.8,0.8-2.1,1-3.1,0.4c-0.4-0.2-1.2-1-0.6-2.5c0-0.2,0.4-0.8,1.2-1.6
	c5.5-7.2,36.4-41.4,78.5-31.7c1.2,0.2,1.8,1.4,1.6,2.7c-0.2,1.2-1.4,1.9-2.7,1.7c-39.9-9.3-68.9,23.5-74.2,30.3
	C1486.5,843.4,1486.1,843.8,1486.1,844z M1486.3,842.8c0-0.8-0.4-1.2-0.8-1.4C1485.8,841.7,1486.3,842.2,1486.3,842.8z"/>
<path class="st2" d="M1474.1,795.6c-0.8-0.6-1.6-1.4-2.3-2.5c-4.1-4.9-5.3-11.5-2.7-17.5c3.3-6.8,10.5-10.9,17.1-13.6
	c14.4-5.6,30.2-5.8,45.4-4.5c4.1,0.4,9.2,0.8,14,2.3c3.3,1,6.4,2.5,8.6,4.9c4.5,4.7,4.3,11.8,1.4,17.1c-0.4,0.6-1.2,1.7-2.1,2.7
	c-0.2,0.4-0.6,0.8-0.8,1c0,0.4,0.4,0.8,0.6,1.2c0.4,0.8,1,1.6,1.4,2.3c1.8,2.9,3.5,6.2,4.7,9.3c1,2.7,2.1,5.2,2.7,8
	c0.2,0.6,0.2,1.4,0.2,2.3c0,0.2,0,0.4,0,0.4c0.6,0.2,1.6,0.6,2.7,1c8.4,3.7,28.6,15,26.7,47.6c-0.6,9.1-5.8,15.5-14.2,19.8
	c-7.8,4.1-18.3,6.4-30,7.4c-23.8,1.9-51.8-1.7-67.8-5.8c-4.9-1.2-8.8-2.7-11.1-3.7c-1.2-0.6-2.3-1.4-2.7-2.1
	c-2.3-2.9-3.5-6.8-4.1-11.1c-0.8-6-0.2-12.8,0.4-17.5C1464.3,830.4,1472.7,802.2,1474.1,795.6z M1466.9,844.8
	c-0.4,4.3-1,10.7-0.4,16.5c0.4,3.5,1.2,6.8,3.1,9.1c0.4,0.4,1,0.8,2.3,1.2c2.3,1,5.3,2.1,9.2,3.1c15.6,3.9,43.2,7.6,66.4,5.8
	c10.9-0.8,21-2.9,28.4-6.8c6.8-3.7,11.5-8.9,11.9-16.3c2.1-33.2-21.4-42.3-26.5-44.3c-0.6-0.2-1-0.4-1.2-0.6
	c-0.4-0.2-0.6-0.6-0.6-0.6c-0.4-0.6-0.6-1.4-0.6-2.3c0-0.8-0.2-1.7-0.2-2.1c-0.6-2.5-1.4-4.9-2.5-7.2c-1.2-3.1-2.9-6-4.5-8.9
	c-0.4-0.8-1.2-1.6-1.6-2.7c-0.6-1-0.8-1.9-0.8-2.9c0-0.8,0.2-1.7,0.8-2.7c0.8-1,2.1-2.3,2.5-3.1c2.1-3.7,2.5-8.9-0.8-12.2
	c-2.3-2.3-5.6-3.5-8.8-4.3c-3.7-0.8-7.6-1.2-10.9-1.4c-14.6-1.2-29.8-1.2-43.6,4.1c-5.8,2.3-12.1,5.6-14.8,11.3
	c-2.1,4.3-1,9.3,2.1,12.8c0.8,0.8,1.4,1.7,2.5,2.5c0.4,0.2,0.6,0.6,0.8,1c0,0.2,0.2,1,0,2.3C1477.2,802,1468.6,830.8,1466.9,844.8z"
	/>
<path class="st4" d="M1376.1,720.5c-0.4,0,0.2-0.6,0.4-1c0.2-0.6,0.4-1.2,0.4-2.1c0.4-1.9,0.4-4.1,0.2-6c-0.4-6.2-3.1-12.8-9.5-14.8
	c-8-2.7-17.1,1-23.6,5.6c-14.6,9.9-28,30.3-26.9,48.4c0.4,7.8,9.2,11.1,9.2,11.1s6.6,15.3-2.3,17.9c-8.8,2.9-21.6,19.8-24.3,25.8
	c-8,18.1-13.4,44.5,9.7,53.8c11.5,4.5,25.5,0.8,36.8-2.3c11.7-3.1,23.6-6.8,34.1-13c17.1-10.1,29.8-27.4,38.6-44.7
	c6-11.5,13.2-27.6,9.7-41c-0.4-1.2-2.5-2.3-3.5-3.1c-3.1-2.5-6-4.7-9-7.2C1405.1,738.9,1388.4,728.4,1376.1,720.5z"/>
<path class="st2" d="M1378.6,719.7c12.3,7.8,28.2,17.7,39.5,26.4c3.1,2.5,6,4.7,9,7.2c0.6,0.6,2.1,1.2,2.9,2.1
	c0.6,0.6,1,1.4,1.2,2.1c3.5,14-3.9,30.7-9.9,42.5c-9,17.7-22.2,35.2-39.5,45.6c-10.7,6.4-22.8,10.1-34.5,13.4
	c-11.7,3.1-26.3,6.8-38.2,2.1c-12.3-4.9-17.3-14.6-17.9-25.4c-0.6-10.3,2.9-21.8,7-31.3c1.6-3.7,7-11.5,12.9-17.7
	c4.1-4.3,8.6-8,12.5-9.1c2.5-0.8,3.1-3.1,3.1-5.4c0-3.5-1.2-7.2-1.8-8.9c-1.2-0.6-3.7-1.9-5.8-3.9c-2.1-2.1-3.9-4.9-4.1-8.7
	c-1.2-18.8,12.7-40,28-50.3c7-4.7,17.1-8.7,25.5-5.8c7.2,2.5,10.5,9.7,10.9,16.7c0.2,2.3,0,4.3-0.2,6.6
	C1379,718.5,1378.8,719.1,1378.6,719.7z M1377.3,718.9c-0.2-0.2-0.6-0.2-1-0.4C1376.5,718.5,1376.9,718.7,1377.3,718.9
	C1377.1,718.7,1377.1,718.9,1377.3,718.9z M1427.1,758.7c0,0-0.4-0.4-0.6-0.6c-0.6-0.6-1.4-1-2.1-1.4c-3.1-2.5-6-4.7-9-7.2
	c-11.5-8.9-28-19.2-40.3-27c-0.4-0.2-0.6-0.4-0.8-0.6c-0.2-0.4-0.4-0.8-0.4-1.2c0-0.2,0-0.6,0.2-1c0-0.2,0.4-0.6,0.4-0.8
	c0.2-0.6,0.2-1,0.4-1.6c0.4-1.9,0.4-3.7,0.2-5.6c-0.4-5.4-2.5-11.1-8-13c-7.4-2.5-15.8,1.2-21.8,5.4c-14,9.5-27.1,29.1-25.9,46.4
	c0.2,3.3,2.3,5.6,4.1,7c2.1,1.6,3.9,2.3,3.9,2.3c0.6,0.2,1,0.6,1.2,1.2c0,0,2.5,6,2.5,11.3c0,4.3-1.4,8-6,9.5c-3.3,1-7.2,4.3-10.7,8
	c-5.6,5.8-10.7,13.2-12.1,16.5c-3.9,8.9-7.2,19.6-6.6,29.3c0.4,9.3,4.5,17.3,15.2,21.6c11.1,4.5,24.7,0.6,35.6-2.3
	c11.5-3.1,23.2-6.8,33.5-12.8c16.6-9.9,29.2-26.8,37.8-43.9C1423.2,787.1,1430.4,771.7,1427.1,758.7z"/>
<path class="st2" d="M1317.9,786.1c-0.6,0.4-1.4,0.6-2.1,0.4c-1-0.4-1.8-1.6-1.4-2.7c0-0.2,0.2-0.4,0.4-0.8c0-0.2,0.4-0.4,1.2-0.8
	c4.5-2.9,28.2-15,51.8-9.5c1.2,0.2,1.9,1.4,1.6,2.7c-0.2,1.2-1.4,1.9-2.7,1.7c-22.2-5.4-44.2,6.4-48.5,9.1
	C1318.3,785.9,1318.1,786.1,1317.9,786.1z"/>
<path class="st2" d="M1374.7,709.2c0-1.2,0.8-2.3,2.1-2.3c1.2,0,2.3,0.8,2.3,2.1c0.6,11.8-4.7,23.7-12.3,30.9
	c-0.8,0.8-2.3,0.8-3.1,0c-0.8-0.8-0.8-2.3,0-3.1C1370.3,730.2,1375.3,719.7,1374.7,709.2z"/>
<path class="st2" d="M1314.8,749.4c-0.2-1.2,0.6-2.3,1.8-2.5c1.2-0.2,2.3,0.6,2.5,1.9c0.6,3.7,1.6,6.2,3.1,7.6
	c2.1,2.3,4.5,2.9,5.8,3.3c7.2,2.5,16.2-1.9,21.8-6.4c0.8-0.8,2.3-0.6,3.1,0.2c0.8,0.8,0.6,2.3-0.2,3.1c-6.4,5.4-17.5,10.1-25.9,7.2
	c-1.8-0.6-4.9-1.4-7.6-4.5C1317.3,757.2,1315.7,754.1,1314.8,749.4z"/>
<path class="st3" d="M1295.3,657.5c2.3,3.3,6.8,8,11.7,13.4c18.3,20,46,46,46,46c5.6,5.4,6,14.2,0.6,20c-5.3,5.6-14.2,6-19.9,0.6
	c0,0-28.6-26.8-47.3-47.4c-9.5-10.5-16.7-19.8-18.5-24.5c-1-2.7-1.6-6-1.2-9.9c0.4-3.9,2.3-9.3,5.6-15.7
	c13.4-25.4,53.6-71.3,53.6-71.3c5.1-5.8,14-6.4,19.9-1.2c6,5.2,6.4,14,1.2,20c0,0-29,33-44.6,57.1
	C1299.4,648.8,1296.6,654.8,1295.3,657.5z"/>
<path class="st2" d="M1297.8,657.3c2.5,3.1,6.4,7.4,10.9,12.2c18.3,20,45.8,46,45.8,46c6.6,6.2,6.8,16.5,0.6,23.1
	c-6.2,6.6-16.4,6.8-23,0.6c0,0-28.6-26.8-47.5-47.6c-9.9-10.7-17.1-20.4-18.9-25.1c-1.2-2.9-1.8-6.6-1.2-10.9
	c0.4-4.1,2.5-9.9,5.8-16.3c13.4-25.3,53.9-71.7,53.9-71.7c6-6.8,16.2-7.4,22.8-1.4c6.8,6,7.4,16.3,1.4,22.9c0,0-28.8,32.8-44.4,56.9
	C1301.7,649.4,1299.2,654.4,1297.8,657.3z M1293.3,656.6c1.2-2.9,4.3-8.9,7.2-13.2c15.6-24.3,44.8-57.3,44.8-57.3
	c4.3-4.9,3.9-12.6-1-16.9c-4.9-4.3-12.5-3.9-16.9,1c-0.4,0.4-40.1,46-53.2,70.9c-3.1,6-4.9,11.1-5.3,14.8c-0.4,3.5,0,6.4,1,8.9
	c1.9,4.5,8.8,13.6,18.1,23.7c18.9,20.6,47.3,47.2,47.3,47.4c4.7,4.5,12.3,4.3,16.9-0.6c4.5-4.7,4.3-12.4-0.6-16.9
	c0,0-27.7-26-46-46.2c-5.1-5.6-9.5-10.3-11.9-13.6C1293.1,658.1,1293.1,657.3,1293.3,656.6z"/>
<path class="st3" d="M1492,559.4c-0.2-6.8,6-12.6,13.6-12.8c7.8-0.2,14.2,5.2,14.4,12.2l6.8,217.5c0.2,6.8-6,12.6-13.6,12.8
	c-7.8,0.2-14.2-5.2-14.4-12.2L1492,559.4z"/>
<path class="st2" d="M1489.8,559.6c-0.2-8,6.8-14.8,15.8-15c9-0.2,16.4,6.2,16.6,14.2l6.8,217.5c0.2,8-6.8,14.8-15.8,15
	c-9,0.2-16.4-6.2-16.7-14.2L1489.8,559.6z M1494.1,559.4l6.8,217.5c0.2,5.8,5.8,10.1,12.3,10.1c6.6-0.2,11.7-4.7,11.5-10.5
	l-6.8-217.5c-0.2-5.8-5.8-10.1-12.3-10.1C1499.2,548.8,1493.9,553.6,1494.1,559.4z"/>
<path class="st0" d="M1745.9,413.4c3.1,9.5,25.1,46.8,59.2,38.1c1.6-0.4,3.1-1.4,4.3-2.5c0.4-0.4,1.6-1.9,1.6-1.9s6.4,0.2,8.8-0.2
	c6.4-0.8,12.5-2.7,18.3-5.6c6.2-2.9,12.1-6.6,17.5-10.7c9.2-7.2,16.2-17.1,19.7-28.2c1.2-4.3,2.1-9.7,0.6-14.2
	c-2.3-7.6-10.1-7.8-10.1-7.8s1-1,1.2-1.2c1.2-1.2,2.5-2.9,3.3-4.5c2.3-4.7,1.2-9.7-0.8-14.6c-3.7-8.5-17.5-7.4-17.5-7.4
	s0.8-1,0.8-1.2c0.6-1.2,1.2-2.7,1.2-4.1c0.2-4.7-3.3-9.3-6.8-12c-7-5.4-18.5-2.7-18.5-2.7s-0.2-1.9-0.2-2.1
	c-0.2-1.9-0.8-3.5-2.1-4.9c-3.9-4.3-11.9-7-17.7-6.6c-9,0.8-16.7,5.4-22.6,12.2c-1.4,1.7-2.7,3.5-3.7,5.4c-0.2,0.6-1.2,2.7-1.2,2.7
	s-14.8-2.7-21.8,7.2c-7.2,10.1-11.1,24.3-10.5,36.5c0.2,3.9,1.6,7.4,2.1,11.1c0,0.8-3.1,1.9-3.5,2.3c-2.3,1.2-3.7,3.3-4.3,6
	C1743.4,405.8,1744.8,409.9,1745.9,413.4z"/>
<path class="st2" d="M1831.4,330.2c4.1-0.4,12.1-0.8,17.9,3.5c4.1,3.1,7.8,8.5,7.6,13.8c0,1-0.4,2.3-0.6,3.3
	c1.8,0.2,4.3,0.4,6.8,1.2c3.7,1.2,7.4,3.5,9,7.4c2.5,5.4,3.5,11.1,0.8,16.5c-0.6,1.2-1.4,2.5-2.3,3.5c2.9,1,6.6,3.3,8,8.4
	c1.4,4.9,0.8,10.9-0.6,15.5c-3.5,11.5-10.9,22.1-20.3,29.3c-5.3,4.3-11.7,8-17.9,10.9c-6,2.9-12.5,4.7-19.1,5.8
	c-2.1,0.2-6.4,0.2-8.2,0.2c-0.4,0.4-1,1-1.2,1.2c-1.4,1.4-3.3,2.5-5.3,3.1c-17.9,4.5-32.7-2.9-43.2-12.8
	c-10.5-9.7-17.1-21.8-18.5-26.8c-1.2-3.9-2.7-8.2-1.8-12.4c0.6-3.3,2.5-5.8,5.3-7.4c0.2-0.2,1-0.4,1.6-0.8c0.2,0,0.4-0.2,0.6-0.4
	c-0.4-3.5-1.6-6.8-1.8-10.3c-0.6-12.6,3.5-27.2,10.9-37.7c3.1-4.3,7.6-6.6,11.9-7.6c4.1-1,8.2-0.8,10.3-0.6c0.2-0.4,0.4-1,0.6-1.2
	c1-2.1,2.5-4.1,3.9-5.8c6.2-7.4,14.4-12.2,24-13c6.4-0.4,15.2,2.5,19.5,7.4C1830.3,325.8,1831.2,327.9,1831.4,330.2z M1851.5,350.3
	c0.4-1,0.8-2.1,1-3.3c0.2-3.9-2.9-7.8-6-10.1c-6.4-4.7-16.7-2.3-16.7-2.3c-0.6,0.2-1.2,0-1.6-0.4c-0.4-0.4-0.8-1-0.8-1.7
	c0,0-0.2-1.9-0.2-2.1c-0.2-1.2-0.6-2.7-1.4-3.7c-3.5-3.9-10.9-6.2-15.8-5.8c-8.4,0.6-15.6,4.9-21,11.3c-1.2,1.4-2.5,3.3-3.5,4.9
	c-0.2,0.4-1.2,2.5-1.2,2.5c-0.4,0.8-1.4,1.4-2.3,1.2c0,0-4.9-0.8-10.3,0.4c-3.3,0.8-7,2.5-9.5,5.8c-7,9.7-10.7,23.5-10.1,35
	c0.2,3.9,1.6,7.4,2.1,11.1c0,0.6-0.2,1.4-1,2.3c-0.8,0.8-3.1,1.7-3.7,1.9c-1.6,1-2.9,2.5-3.3,4.3c-0.6,3.3,0.8,7.2,1.8,10.3
	c1.4,4.5,7.6,15.9,17.3,24.9c9.7,8.9,23,15.9,39.3,11.8c1.2-0.4,2.5-1,3.5-2.1c0.4-0.4,1.6-1.7,1.6-1.7c0.4-0.4,1-0.8,1.6-0.6
	c0,0,6,0.2,8.6-0.2c6.2-0.8,12.1-2.7,17.7-5.4c6-2.9,11.9-6.4,17.1-10.3c8.8-6.8,15.6-16.5,18.9-27.2c1.2-3.9,2.1-8.9,0.6-13
	c-1.8-6-8-6.2-8-6.2c-0.8,0-1.6-0.6-1.8-1.2c-0.4-0.8-0.2-1.7,0.4-2.3c0,0,1-1.2,1.2-1.4c1-1,2.1-2.5,2.9-3.9
	c2.1-4.1,1-8.4-0.8-12.8c-1.2-2.9-3.9-4.3-6.4-5.2c-4.3-1.4-8.8-1-8.8-1c-0.6,0-1.2-0.2-1.6-0.6c0,0-1.4-1.4-0.2-2.9
	C1850.9,351.2,1851.3,350.3,1851.5,350.3z"/>
<path class="st2" d="M1811.4,445c1.2,0.2,2.1,1.2,1.9,2.5c-0.2,1.2-1.2,2.1-2.5,1.9c0,0-11.9-1.7-28.6-17.1
	c-0.8-0.8-0.8-2.3-0.2-3.1c0.8-0.8,2.3-1,3.1-0.2C1800.5,443.1,1811.4,445,1811.4,445z"/>
<path class="st2" d="M1750,394.9c-0.4-1,0-2.5,1-2.9c1-0.4,2.5,0,2.9,1c0,0,4.3,9.3,14.6,19.2c0.8,0.8,0.8,2.3,0,3.1
	c-0.8,0.8-2.3,0.8-3.1,0C1754.5,404.8,1750,394.9,1750,394.9z"/>
<path class="st2" d="M1866.3,378.2c1.2,0,2.1,1,2.1,2.3c0,1.2-1,2.1-2.3,2.1c0,0-16.9-0.6-26.7,7.8c-4.9,4.1-8.4,8.9-9.9,13.2
	c-1.2,3.7-1,7,1.6,9.3c5.8,5.2,16,2.5,22.6-6.4c0.8-1,2.1-1,3.1-0.4c1,0.8,1,2.1,0.4,3.1c-8.4,10.9-21.6,13.4-29,7
	c-3.3-2.9-4.3-6.6-3.7-10.9c0.8-5.6,5.1-12.2,12.1-17.9C1847.8,377.8,1866.3,378.2,1866.3,378.2z"/>
<path class="st2" d="M1828.1,398.6c1.2,0,2.3,0.8,2.3,2.1c0,1.2-0.8,2.3-2.1,2.3c0,0-7.4,0.4-12.9-4.7c-3.7-3.3-6.8-8.9-6.8-18.8
	c0-1.2,1-2.1,2.3-2.1s2.1,1,2.1,2.3c-0.2,8,2.3,12.8,5.3,15.5C1822.7,398.8,1828.1,398.6,1828.1,398.6z"/>
<path class="st2" d="M1852.3,350.6c1.2-0.2,2.3,0.8,2.3,1.9c0.2,1.2-0.8,2.3-1.8,2.3c0,0-16.2,1.4-25.3,10.1c-0.8,0.8-2.3,0.8-3.1,0
	c-0.8-0.8-0.8-2.3,0-3.1C1834.4,352.2,1852.3,350.6,1852.3,350.6z"/>
<path class="st2" d="M1782,341.5c-1.2,0-2.1-1-2.1-2.3c0-1.2,1-2.1,2.3-2.1c0,0,17.3,1,41.1,20.8c5.6,4.7,7.8,9.1,7.4,12.8
	c-0.2,2.7-1.4,5.2-3.9,7c-3.1,2.5-8,3.9-14.2,3.9c-8.6,0.2-19.7-2.7-30.8-9.7c-1-0.6-1.2-2.1-0.6-3.1c0.6-1,2.1-1.2,3.1-0.6
	c14,8.9,28.2,10.5,36.4,7.8c3.3-1,5.8-2.9,6-5.4c0.4-2.7-1.6-6-6-9.5C1798.1,342.5,1782,341.5,1782,341.5z"/>
<path class="st2" d="M1795.6,378.2c-0.6-1-0.4-2.3,0.4-3.1c1-0.6,2.3-0.4,3.1,0.4c0,0,4.3,6,7,12.8c1.9,4.9,2.5,10.3,0.4,14.6
	c-2.3,4.5-7.6,7.8-18.9,7.6c-1.2,0-2.1-1-2.1-2.3c0-1.2,1-2.1,2.3-2.1c8.8,0.2,13.2-1.7,15-5.2c1.6-3.3,0.6-7.4-0.6-11.1
	C1799.7,383.7,1795.6,378.2,1795.6,378.2z"/>
<path class="st2" d="M1829.3,330.4c1.2,0,2.3,0.8,2.3,2.1c0,1.2-0.8,2.3-2.1,2.3c0,0-10.3,0.8-21,15.5c-0.6,1-2.1,1.2-3.1,0.4
	c-1-0.6-1.2-2.1-0.4-3.1C1817.2,331,1829.3,330.4,1829.3,330.4z"/>
<path class="st3" d="M1569.3,486c-6-2.7-8.8-9.5-6.4-15.7c2.7-6,9.5-8.9,15.6-6.4c0,0,35.4,15,65.4,22.3c11.3,2.7,21.6,4.5,28.6,3.1
	c26.9-5.6,64.1-39.4,83.2-64.3c3.9-5.2,11.5-6.2,16.6-2.3c5.1,3.9,6.2,11.5,2.3,16.7c-22,28.9-66,66.8-97.2,73.2
	c-9.2,1.9-23.4,0.4-38.8-3.3C1606.7,501.8,1569.3,486,1569.3,486z"/>
<path class="st2" d="M1568.5,487.8c-7.2-3.1-10.5-11.3-7.4-18.3c3.1-7.2,11.3-10.5,18.3-7.4c0,0,35.1,15,65.2,22.1
	c10.9,2.7,21,4.5,27.5,3.1c26.5-5.6,63.1-39,82-63.5c4.7-6.2,13.6-7.4,19.7-2.7c6.2,4.7,7.4,13.6,2.7,19.8
	c-22.2,29.3-66.8,67.4-98.5,74c-9.5,1.9-24.1,0.4-39.7-3.3C1606.1,503.9,1568.5,487.8,1568.5,487.8z M1570.1,483.9
	c0.2,0,37.2,15.9,68.9,23.3c15,3.5,28.8,5.2,37.8,3.3c30.8-6.4,74.2-43.9,96-72.3c3.3-4.3,2.5-10.3-1.8-13.6
	c-4.3-3.3-10.3-2.5-13.6,1.9c-19.3,25.4-57.1,59.6-84.5,65.1c-7,1.4-17.9-0.4-29.4-3.1c-30.2-7.2-65.8-22.3-65.8-22.3
	c-4.9-2.1-10.7,0.2-12.7,5.2C1562.9,476.1,1565.2,481.9,1570.1,483.9z"/>
<path class="st5" d="M1611.4,332.6c1.4-6.8,8.8-13.6,13.8-17.9c16-14.8,45.4-30.1,65.8-15.7c15.6,11.1,24,31.3,27.1,49.5
	c6.4,38.3-2.9,87.6-38.2,109.7c-19.3,12.2-44.8,11.5-62.3-3.7c-8.8-7.6-18.1-23.1-10.9-34.8c3.5-5.8,9.7-5.6,15.2-3.5
	c10.3,3.9,17.7,13.4,28.2,16.5c21.8,6.2,34.5-21.2,38.2-38.1c0.8-3.9,1.4-7.6,1.6-11.5c0.8-9.7-0.6-20-4.5-28.9
	c-1.8-4.1-4.3-8-7.8-11.1c-15.4-13.8-35.1-3.3-46.5,10.1c-4.5,5.4-8,13.2-14.6,16.5c-4.3,2.3-8-0.6-9.9-4.3
	C1603,359,1609.4,339.4,1611.4,332.6z"/>
<path d="M1650.3,468.7c-0.8,0-1.6,0-2.7,0c-11.9-0.6-23-4.9-31.9-12.6c-5.1-4.3-9.7-10.7-12.1-16.7c-3.1-7.8-2.9-15,0.6-20.8
	c3.5-5.8,10.1-7.4,17.9-4.3c4.9,1.9,9.2,5.2,13.4,8c4.7,3.5,9.2,6.8,14.6,8.2c5.3,1.4,10.7,0.8,15.4-2.1
	c10.9-6.6,17.5-22.7,20.1-34.4c0.8-3.7,1.4-7.6,1.6-11.3c0.8-9.9-0.8-19.8-4.5-27.6c-1.8-4.3-4.3-7.6-7.2-10.3
	c-4.7-4.3-10.3-6.4-16.4-5.8c-9,0.6-19.1,6.6-26.9,15.9c-1.2,1.4-2.5,3.3-3.9,5.2c-3.1,4.5-6.4,9.3-11.3,11.8
	c-4.7,2.5-9.9,0.2-12.7-5.4c-3.3-6.2,0.4-19.6,3.9-31.7c0.4-1,0.6-2.1,0.8-2.9c1.6-7.4,9-14.2,14-18.8l0.4-0.4
	c9.5-8.7,21.2-15.7,32.1-19.4c14.2-4.5,26.7-3.5,36.4,3.5c19.9,14.2,26.1,40.4,28,50.9c6.4,39.4-3.3,89.3-39.3,111.7
	C1671.7,465.6,1661,468.7,1650.3,468.7z M1614.9,417.1c-2.7,0-5.1,1-6.8,3.7c-6.8,10.9,2.9,25.4,10.5,32c16.4,14,40.5,15.5,59.8,3.5
	c34.3-21.4,43.6-69.5,37.2-107.4c-1.6-10.1-7.4-34.8-26.1-48.2c-20.8-14.8-50.4,3.7-63.1,15.5l-0.4,0.4
	c-4.5,4.1-11.5,10.5-12.7,16.5c0,0,0,0,0,0.2c-0.2,0.8-0.4,1.9-0.8,2.9c-2.1,7-6.8,23.5-4.1,28.4c0.6,1.2,3.3,5.4,7,3.5
	c3.9-2.1,7-6.4,9.7-10.5c1.2-1.9,2.7-3.9,4.1-5.6c8.4-10.1,19.7-16.7,29.8-17.3c7.4-0.6,14,1.9,19.7,7c3.3,3.1,6.2,7,8.4,11.7
	c3.9,8.7,5.6,19.2,4.7,29.9c-0.2,3.9-0.8,7.8-1.6,12c-2.7,12.6-10.1,30.1-22.2,37.3c-5.8,3.5-12.1,4.3-18.7,2.5
	c-6-1.6-11.1-5.4-16-8.9c-4.1-3.1-8-5.8-12.3-7.6C1619,417.5,1617,417.1,1614.9,417.1z"/>
<path class="st6" d="M1485.2,591.9c30.2-4.7,86.3-18.3,116.5-56.1c23-28.7,25.1-83.5,25.3-87c1.4-23.9,2.5-48,2.7-72.1
	c0.2-23.5-0.6-47-2.1-70.5c-1.2-23.1-3.7-48-15.4-68.4c-23.4-40.6-78.1-39.6-118.8-39.2c-12.7,0.2-25.9,0.2-38.6,1.6
	c-12.5,1.4-24.9,3.3-37.4,5.8c-15.8,2.9-31.4,6.4-47.1,10.3c-37.8,9.7-75.2,21.8-109.6,40.6c-12.5,6.8-29.4,15.3-36,28.7
	c-6,12.2-5.3,27.2-4.3,40.4c2.1,28.9,9.2,57.7,16.4,85.7c6.8,27.2,14.6,54.2,23.2,80.8c6.4,19.8,13.4,39.8,25.9,56.5
	c37,48.6,109.6,51.5,164.8,47C1462.4,595.2,1473.9,593.8,1485.2,591.9z"/>
<g>
	<defs>
		<rect id="SVGID_3_" x="1217.3" y="196.3" width="414.7" height="403.7"/>
	</defs>
	<clipPath id="SVGID_4_">
		<use xlink:href="#SVGID_3_"  style="overflow:visible;"/>
	</clipPath>
	<g class="st7">
		<path d="M1416,600c-20.1,0-38.2-1.7-54.7-5.2c-34.1-7.2-60-22.1-76.9-44.1c-13.4-17.5-20.6-39.6-26.3-57.1
			c-8.2-25.3-15.8-51.9-23.2-81l-0.2-1c-7-27.8-14.2-56.3-16.2-85.1c-1-14.8-1.4-29.3,4.5-41.4c6.6-13.2,21.8-21.4,33.9-28
			c1-0.6,1.8-1,2.9-1.6c29.6-16.3,63.5-28.9,110-40.8c14.2-3.7,29.6-7,47.1-10.3c13.4-2.5,25.7-4.3,37.4-5.8
			c12.1-1.4,24.7-1.4,36.8-1.6h3.9c20.6-0.2,44-0.4,65.6,4.5c25.3,5.8,42.8,17.5,53.2,35.9c11.9,20.8,14.4,45.8,15.6,69.5
			c1.4,25.8,2.3,49.1,2.1,70.7c-0.2,22.7-1,46.4-2.7,72.1c0,0.2,0,0.4,0,0.6c-0.8,15.3-2.9,28-4.5,35.9
			c-4.5,22.5-11.7,39.8-21.2,51.5c-13.6,16.9-33.3,30.7-59,41c-22.2,8.9-44.2,13.6-58.8,15.9c-13.2,2.1-24,3.3-34.3,4.1
			C1438.8,599.3,1427.1,600,1416,600z M1508.5,200.9c-4.5,0-9,0-13.4,0h-3.9c-11.9,0.2-24.5,0.2-36.4,1.7
			c-11.7,1.2-23.8,3.1-37.2,5.6c-17.5,3.3-32.9,6.6-46.9,10.3c-46,12-79.5,24.3-108.9,40.4c-1,0.4-1.8,1-2.9,1.6
			c-11.7,6.4-26.3,14.2-32.3,26.2c-5.5,11.3-5.1,25.1-4.1,39.4c2.1,28.4,9.2,56.9,16,84.3l0.2,1c7.4,29.1,15,55.4,23.2,80.8
			c5.8,17.3,12.7,39,25.7,55.9c28.4,37.1,83.2,52.8,163,46.2c10.3-0.8,21.2-2.3,34.1-4.1c30.2-4.7,85.3-18.1,115.1-55.2
			c20.1-24.9,24-71.3,24.7-85.1c0-0.4,0-0.6,0-0.8c1.6-25.8,2.5-49.5,2.7-71.9c0.2-21.6-0.6-44.5-2.1-70.3
			c-1.4-23.3-3.7-47.6-15.2-67.6C1590.3,204.2,1547.1,200.9,1508.5,200.9z"/>
	</g>
</g>
<path class="st5" d="M1627.3,302.1c-6.2,5.8-12.5,11.3-19.5,16.3c-28.2,20.6-61.5,30.3-94.8,38.5c-49.1,12.2-100.3,20.8-150.9,22.7
	c-23.4,0.8-46.4-0.8-69.9-2.9c-21-1.9-43-3.7-61.9-14c-1.8-1-3.9-2.3-5.8-3.5c-2.1-10.9-3.5-22.1-4.3-33.2
	c-0.8-13.2-1.6-28.2,4.3-40.4c6.6-13.4,23.4-21.8,36-28.7c34.3-18.8,71.7-30.9,109.6-40.6c15.6-3.9,31.2-7.4,47.1-10.3
	c12.3-2.3,24.9-4.3,37.4-5.8c12.7-1.4,25.7-1.4,38.6-1.6c40.7-0.4,95.6-1.7,118.8,39.2C1623.2,257.2,1625.8,280.3,1627.3,302.1z"/>
<g>
	<defs>
		<rect id="SVGID_5_" x="1217.3" y="196.3" width="412" height="186.4"/>
	</defs>
	<clipPath id="SVGID_6_">
		<use xlink:href="#SVGID_5_"  style="overflow:visible;"/>
	</clipPath>
	<g class="st8">
		<path d="M1348.8,382.1c-17.9,0-36-1.2-56.5-3.1l-2.5-0.2c-20.6-1.9-41.7-3.9-60.2-14c-2.1-1-3.9-2.3-5.8-3.5
			c-0.4-0.4-0.8-0.8-1-1.4c-2.1-12.2-3.5-23.1-4.3-33.4c-1-14.8-1.4-29.3,4.5-41.4c6.6-13.2,21.8-21.4,33.9-28c1-0.6,1.8-1,2.9-1.6
			c29.6-16.3,63.5-28.9,110-40.8c14.2-3.7,29.6-7,47.1-10.3c13.4-2.5,25.7-4.3,37.4-5.8c12.1-1.4,24.7-1.4,36.8-1.6h3.9
			c20.6-0.2,44-0.4,65.6,4.5c25.3,5.8,42.8,17.5,53.2,35.9c11.1,19.4,14,42.7,15.4,65.1c0,0.6-0.2,1.2-0.6,1.7
			c-6.4,6-12.9,11.7-19.7,16.5c-13.2,9.5-28.2,17.5-46,24.1c-16.7,6.4-34.5,11.1-49.5,14.8c-53.4,13.4-104.4,21-151.3,22.7
			C1357.8,382.1,1353.3,382.1,1348.8,382.1z M1226.9,358c1.6,1,3.1,1.9,4.7,2.9c17.9,9.7,38.6,11.8,58.6,13.6l2.5,0.2
			c25.5,2.5,47.3,3.7,69.5,2.9c46.5-1.9,97.2-9.3,150.5-22.7c31.9-7.8,65.4-17.3,93.9-38.3c6.4-4.5,12.5-9.9,18.5-15.5
			c-1.4-21.4-4.3-43.9-14.8-62.2c-22.4-39-73.8-38.5-115.1-38.1h-3.9c-11.9,0.2-24.5,0.2-36.4,1.6c-11.7,1.2-23.8,3.1-37.2,5.6
			c-17.5,3.3-32.9,6.6-46.9,10.3c-46,12-79.5,24.3-108.9,40.4c-1,0.4-1.8,1-2.9,1.7c-11.7,6.4-26.3,14.2-32.3,26.2
			c-5.6,11.3-5.1,25.1-4.1,39.4C1223.4,336.1,1224.8,346.4,1226.9,358z"/>
	</g>
</g>
<path class="st4" d="M1406.7,222.1c99.9-18.1,185.6-7.6,191.2,23.3c5.5,30.9-71.1,70.7-171.2,88.6c-99.9,18.1-185.6,7.6-191.2-23.3
	C1230,280.1,1306.6,240.3,1406.7,222.1z"/>
<path d="M1334.2,345.2c-13.8,0-26.9-0.6-38.8-2.3c-37.2-4.5-59.2-15.9-62.1-31.7c-2.9-15.9,13.8-34.2,47.1-51.5
	c32.5-16.9,77.3-30.9,125.8-39.8c48.5-8.9,95.4-11.1,131.8-6.8c37.2,4.5,59.2,15.9,62.1,31.7c2.9,15.9-13.8,34.2-47.1,51.5
	c-32.5,16.9-77.3,30.9-125.8,39.8C1394.4,342.1,1362.5,345.2,1334.2,345.2z M1406.9,224.4c-48.1,8.7-92.3,22.7-124.6,39.4
	c-31,16.1-47.3,33.2-44.8,46.8c2.5,13.6,23.6,23.9,58.4,28.2c36,4.3,82.2,2.1,130.3-6.8c48.1-8.7,92.3-22.7,124.6-39.4
	c31-16.1,47.3-33.2,44.8-46.8c-2.5-13.6-23.6-23.9-58.4-28.2C1501.5,213.3,1455.2,215.8,1406.9,224.4z"/>
<path class="st0" d="M1411.4,266.9c1-20.4,19.7-26.8,30.8-26.4c11.1,0.2,14.6,7.4,8.6,17.5c-3.9,7.6-18.3,18.6-30.6,27
	c-15.8,1.2-35.2,1.9-44.4-1.2c-12.7-3.9-16.2-10.9-8.6-17.5C1374.9,259.4,1393.8,253.1,1411.4,266.9z"/>
<path class="st0" d="M1440.8,300.5c-3.9-2.3-8.6-4.5-13.6-5.2c-9-1.4-19.5,0.8-28.6,1.4c-12.7,1-25.5,1.4-38,1.2
	c-11.3-0.2-25.5-1-32.5-8.9c-3.3-3.9-3.5-8.9-2.3-13.4c2.7-9.9,10.5-17.5,21.2-22.7c12.3-6,25.1-8.7,39.1-7.4
	c3.7,0.4,7.6,0.6,10.9,1.9c1,0.4,3.5,2.1,4.5,1.9c1.2-0.2,3.3-2.7,4.1-3.5c2.9-2.3,6-4.3,9.5-6c5.5-2.7,11.7-4.3,17.5-6
	c13.6-3.9,27.8-7.2,40.9-1.7c12.1,4.9,17.1,16.9,8.2,26.4c-8.6,9.1-22.2,15.5-31.4,24.1C1446,286.9,1439.6,293.9,1440.8,300.5z
	 M1402.6,253.7c-0.8,0-3.7-1.6-4.9-2.1c-4.5-1-9.2-1.6-14-1.4c-11.9,0.4-23.8,3.9-32.5,11.3c-7.4,6.2-10.5,15.3-4.1,22.3
	c8.8,10.1,28.4,8.9,42.1,7.8c10.9-0.8,21.6-2.1,32.3-1.2c3.3,0.2,6.4,0.6,9.7,1.2c0.6,0.2,2.7,1,3.5,0.6c1.2-0.4,1.8-2.9,2.3-3.9
	c1.8-2.9,4.1-5.6,7-7.8c7.4-5.8,14.8-9.1,18.5-17.1c1.6-3.7,2.9-7.6,3.1-11.3c0.6-8.5-7-16.1-17.7-16.5c-9.7-0.4-19.5,3.9-28,7.6
	C1414.9,245,1405.9,250.2,1402.6,253.7z"/>
<path class="st0" d="M1402,242.3c22-28.4,74.4-22.1,83.7-21.2c20.1,1.4,33.9,13.6,28,30.1c-3.3,9.1-11.5,17.7-20.8,23.5
	c-10.5,6.6-23,11.5-32.3,19.6c-4.7,3.9-5.3,7.8-4.9,13c0.2,2.5,1.2,7.2-2.1,8.9c-4.1,2.1-11.9-2.3-15.2-3.7
	c-10.9-4.7-22.2-6.6-34.7-6.8c-22.4-0.6-45.4,3.7-67.8,5.4c-9,0.6-18.3,1.4-27.3,0.4c-2.9-0.4-5.8-1-8.2-2.1
	c-16.7-7.2-11.3-27.2-2.1-37.9c4.7-5.6,11.1-10.3,17.7-14.4c16.2-10.1,36.6-18.3,56.9-19.2c6.8-0.2,13.4,0.4,19.7,2.1
	c2.5,0.6,4.9,1.4,7.4,2.3C1399.9,241.7,1402,242.3,1402,242.3z M1402,246.1c-4.1-1-8-2.5-12.5-3.1c-20.6-2.3-45.6,3.3-61.2,15.5
	c-11.3,8.9-20.8,24.5-10.5,35.5c4.9,5.2,12.7,7.2,20.6,8c13.8,1.4,28.2-0.8,41.9-1.9c14.4-1,29.4-1.7,43.4,0.8
	c4.5,0.8,8.4,1.9,12.5,3.3c1.6,0.6,4.1,1.2,6,0.4c2.9-1.2,4.3-4.3,5.1-6.6c1.8-4.7,2.3-9.7,6.8-13.4c5.1-4.5,13.2-7.2,19.3-10.5
	c11.1-6.2,20.1-15.2,22.2-26.2c2.5-13-11.7-21.4-26.5-23.1c-17.1-1.7-33.7,2.5-48.7,9.5C1414.9,236.8,1406.3,242.5,1402,246.1z"/>
<path class="st0" d="M1347.5,442.1l53.6-7.8c0,0,12.7,59.4-14.8,66.4C1352.2,509.1,1347.3,457.3,1347.5,442.1z"/>
<path class="st2" d="M1347.3,439.8l53.6-7.8c1-0.2,2.3,0.6,2.5,1.6c0,0,4.7,21.8,2.5,40.8c-1.6,13.4-6.8,25.1-18.7,28
	c-15,3.7-24.7-3.1-31-13.4c-9-14.8-10.9-37.7-10.7-47.2C1345.5,440.8,1346.3,440,1347.3,439.8z M1349.8,443.9
	c0,9.7,1.8,29.7,10.1,43.1c5.3,8.9,13.8,14.6,26.3,11.5c10.1-2.5,14-13,15.4-24.5c1.9-14.8-0.8-31.7-1.8-37.3L1349.8,443.9z"/>
<path class="st2" d="M1365.2,496.7c-15.4-12.2-17.9-43.3-17.7-54.6l36.2-5.2c0.4,2.1,0.6,4.1,1,6.2c0.2,1.6,1.2,5.8-0.2,7.4
	c-3.5,3.7-10.3,2.3-14.6,1.4c-1.4-0.2-2.9-0.6-4.3-0.8c-0.4,0-0.8-0.2-1.2-0.2c-0.2,0-0.8-0.4-0.6-0.2c1.4,6,8.6,9.9,13.2,13.2
	c3.7,2.7,6.4,3.9,5.8,9.1c-0.2,1.7-0.4,3.1-1,4.5c-0.8,2.3-2.1,4.3-3.5,6.2c-2.1,2.7-4.3,5.2-6.8,7.4
	C1369.7,493,1367.7,494.8,1365.2,496.7z"/>
<path class="st2" d="M1367.7,453.6c0.8,1,1.8,1.9,2.9,2.9c2.5,2.1,5.6,3.9,7.8,5.4c4.3,3.1,7.2,4.7,6.8,11.1c-0.2,1.7-0.6,3.5-1,5.2
	c-0.8,2.5-2.3,4.7-3.7,6.8c-2.1,2.7-4.5,5.2-7,7.6c-2.1,2.3-4.3,4.1-6.6,6c-0.8,0.6-1.8,0.6-2.7,0c-6.4-5.2-10.9-13.4-13.6-22.3
	c-4.1-13-4.9-27.2-4.9-34.2c0-1,0.8-1.9,1.9-2.1l36.2-5.2c1.2-0.2,2.3,0.6,2.5,1.6c0.4,2.1,0.6,4.1,1,6.4c0.2,1,0.6,3.1,0.6,4.9
	c0,1.6-0.4,3.3-1.4,4.3c-1.6,1.9-4.1,2.7-6.8,3.1c-3.3,0.4-7-0.4-9.9-0.8C1368.9,453.8,1368.3,453.6,1367.7,453.6z M1365,448.5
	c0.4,0,0.8,0.2,1,0.2c1.4,0.2,2.9,0.6,4.3,0.8c2.1,0.4,4.7,0.8,7.2,1c2.1,0,4.1-0.2,5.3-1.6c0.2-0.2,0.2-0.4,0.2-0.4
	c0-0.4,0-1,0-1.4c-0.2-1.4-0.4-2.9-0.6-3.7c-0.2-1.2-0.4-2.7-0.6-4.1l-32.3,4.7c0,7,1,19.6,4.7,30.9c2.5,7.4,5.8,14.4,10.9,19.2
	c1.6-1.4,3.3-2.9,4.7-4.5c2.3-2.3,4.5-4.7,6.6-7.2c1.2-1.7,2.5-3.5,3.1-5.6c0.4-1.2,0.8-2.7,0.8-4.1c0.4-4.1-2.1-4.9-4.9-7.2
	c-2.9-2.1-6.6-4.3-9.5-7c-2.3-2.1-3.9-4.5-4.5-7.4c-0.2-0.8,0-1.4,0.4-1.6c0.2-0.4,0.6-0.8,1.2-0.8c0.2,0,0.6-0.2,1,0
	C1364.4,448.3,1364.8,448.5,1365,448.5z"/>
<path class="st2" d="M1331.5,445.8c-1.2,0.2-2.3-0.6-2.5-1.9c-0.2-1.2,0.6-2.3,1.8-2.5l85.9-13c1.2-0.2,2.3,0.6,2.5,1.9
	c0.2,1.2-0.6,2.3-1.8,2.5L1331.5,445.8z"/>
<path class="st0" d="M1454,426l53.6-7.8c0,0,12.7,59.4-14.8,66.4C1458.5,493,1453.6,441.2,1454,426z"/>
<path class="st2" d="M1453.6,423.9l53.6-7.8c1-0.2,2.3,0.6,2.5,1.7c0,0,4.7,21.8,2.5,40.8c-1.6,13.4-6.8,25.1-18.7,28
	c-15,3.7-24.7-3.1-31-13.4c-9-14.8-10.9-37.7-10.7-47.2C1451.7,425,1452.6,423.9,1453.6,423.9z M1456,427.8
	c0,9.7,1.8,29.7,10.1,43.1c5.3,8.9,13.8,14.6,26.3,11.5c10.1-2.5,14-13,15.4-24.5c1.8-14.8-0.8-31.7-1.8-37.3L1456,427.8z"/>
<path class="st2" d="M1471.7,480.6c-15.4-12.2-17.9-43.3-17.7-54.6l36.2-5.2c0.4,2.1,0.6,4.1,1,6.2c0.2,1.6,1.2,5.8-0.2,7.4
	c-3.5,3.7-10.3,2.3-14.6,1.4c-1.4-0.2-2.9-0.6-4.3-0.8c-0.4,0-0.8-0.2-1.2-0.2c-0.2,0-0.8-0.4-0.6-0.2c1.4,6,8.6,9.9,13.2,13.2
	c3.7,2.7,6.4,3.9,5.8,9.1c-0.2,1.7-0.4,3.1-1,4.5c-0.8,2.3-2.1,4.3-3.5,6.2c-2.1,2.7-4.3,5.2-6.8,7.4
	C1476,477.1,1473.9,479,1471.7,480.6z"/>
<path class="st2" d="M1473.9,437.5c0.8,1,1.8,1.9,2.9,2.9c2.5,2.1,5.6,3.9,7.8,5.4c4.3,3.1,7.2,4.7,6.8,11.1c-0.2,1.7-0.4,3.5-1,5.2
	c-0.8,2.5-2.3,4.7-3.7,6.8c-2.1,2.7-4.5,5.2-7,7.6c-2.1,2.3-4.3,4.1-6.6,6c-0.8,0.6-1.8,0.6-2.7,0c-6.4-5.2-10.9-13.4-13.6-22.3
	c-4.1-13-4.9-27.2-4.9-34.2c0-1,0.8-1.9,1.8-2.1l36.2-5.2c1.2-0.2,2.3,0.6,2.5,1.6c0.4,2.1,0.6,4.1,1,6.4c0.2,1,0.6,3.1,0.6,4.9
	c0,1.7-0.4,3.3-1.4,4.3c-1.6,1.9-4.1,2.7-6.8,3.1c-3.3,0.4-7-0.4-9.9-0.8C1475.4,437.7,1474.8,437.7,1473.9,437.5z M1471.5,432.6
	c0.4,0,0.8,0.2,1,0.2c1.4,0.2,2.9,0.6,4.3,0.8c2.1,0.4,4.7,0.8,7.2,1c2.1,0,4.1-0.2,5.3-1.7c0.2-0.2,0.2-0.4,0.2-0.6
	c0-0.4,0-1,0-1.4c-0.2-1.4-0.4-2.9-0.6-3.7c-0.2-1.2-0.4-2.7-0.6-3.9l-32.3,4.7c0,7,1,19.6,4.7,30.9c2.5,7.4,5.8,14.4,10.9,19.2
	c1.6-1.4,3.3-2.9,4.7-4.5c2.3-2.3,4.5-4.7,6.6-7.2c1.2-1.7,2.5-3.5,3.1-5.6c0.4-1.2,0.8-2.7,0.8-4.1c0.4-4.1-2.1-4.9-4.9-7.2
	c-2.9-2.1-6.6-4.3-9.5-7c-2.3-2.1-3.9-4.5-4.5-7.4c-0.2-0.8,0-1.4,0.4-1.6c0.2-0.4,0.6-0.8,1.2-0.8c0.2,0,0.6-0.2,1,0
	C1470.8,432.4,1471.3,432.4,1471.5,432.6z"/>
<path class="st2" d="M1438,429.7c-1.2,0.2-2.3-0.6-2.5-1.9c-0.2-1.2,0.6-2.3,1.8-2.5l85.9-13c1.2-0.2,2.3,0.6,2.5,1.9
	c0.2,1.2-0.6,2.3-1.8,2.5L1438,429.7z"/>
<path class="st2" d="M1441.9,478.3c0.8,0.8,0.8,2.3-0.2,3.1c-0.8,0.8-2.3,0.8-3.1-0.2c-1.4-1.4-2.7-2.5-4.7-2.9
	c-1.4-0.2-3.1-0.4-4.5-0.2c-1,0.2-1.8,0.6-2.9,1c-3.7,2.3-3.9,6.4-2.5,9.9c1.6,3.5,5.1,6.6,9.2,5.8c1.4-0.2,2.9-0.8,4.1-1.7
	c1-0.6,2.3-0.4,3.1,0.4c0.6,1,0.4,2.3-0.4,3.1c-1.6,1.2-3.7,2.1-5.8,2.5c-6,1-11.5-3.1-13.8-8.2c-2.5-5.4-1.6-12,4.1-15.5
	c1.2-0.8,2.7-1.2,4.3-1.7c2.1-0.4,4.1-0.2,6.2,0.2C1438,474.8,1440,476.1,1441.9,478.3z"/>
<path class="st0" d="M1383.1,522.9l121.1-18.3c0,0,4.7,54.8-51.6,62.7C1396,575,1385.3,534.6,1383.1,522.9z"/>
<path class="st2" d="M1382.7,520.6l120.9-18.3c0.6,0,1.2,0,1.6,0.4c0.4,0.4,0.8,0.8,0.8,1.4c0,0,4.9,56.9-53.4,65.1
	c-23.2,3.3-39.1-1.6-49.7-9.3c-16-11.5-20.8-29.5-22.2-36.9c-0.2-0.6,0-1.2,0.4-1.7C1381.4,521,1382.1,520.8,1382.7,520.6z
	 M1385.5,524.5c1.8,7.6,6.6,22.3,19.9,31.9c10.1,7.2,24.7,11.5,46.7,8.4c47.5-6.6,49.9-47.8,49.7-58.1L1385.5,524.5z"/>
<path class="st2" d="M1345.3,425.8c-0.6,1-2.1,1.2-3.1,0.6c-1-0.6-1.2-2.1-0.6-3.1c1.2-1.9,3.7-3.5,6.6-4.5c3.7-1.4,8-2.5,10.5-3.3
	c17.3-5.4,36-6.4,53.6-2.7c1.2,0.2,1.9,1.4,1.6,2.7c-0.2,1.2-1.4,1.9-2.7,1.6c-17.1-3.7-34.7-2.7-51.4,2.5
	c-2.3,0.6-6.6,1.7-10.1,3.1C1347.9,423.5,1346.1,424.6,1345.3,425.8z"/>
<path class="st2" d="M1440.4,407.4c0.6,1,0.2,2.5-0.8,2.9c-1,0.6-2.5,0.2-2.9-0.8c-0.6-1.2-0.8-2.7-0.4-4.5c0.6-2.9,2.3-6.6,3.1-8.2
	c4.9-10.3,13.2-19.6,24.2-23.3c7.6-2.5,16-1.2,23.6,2.5c11.1,5.4,21,15.7,25.3,25.8c0.4,1,0,2.5-1,2.9c-1,0.4-2.5,0-2.9-1
	c-3.9-9.3-12.9-18.8-23.2-23.5c-6.6-3.1-13.8-4.3-20.3-2.3c-9.9,3.3-17.3,11.5-21.8,20.8c-0.6,1.2-1.8,3.7-2.7,6.2
	c-0.2,0.6-0.2,1.2-0.4,1.9C1440.2,407,1440.2,407.2,1440.4,407.4z"/>
<path class="st2" d="M1388,540.6c-1.2,0-2.3-1-2.1-2.3c0-1.2,1-2.3,2.3-2.1c0,0,71.9,1,114.1-19.2c1-0.4,2.5,0,2.9,1
	c0.4,1,0,2.5-1,2.9C1461.2,541.6,1388,540.6,1388,540.6z"/>
<path class="st2" d="M1427.7,518.5c-0.2-1.2,0.8-2.3,1.8-2.5c1-0.2,2.3,0.8,2.5,1.9c1,10.1,2.3,20,3.9,30.1
	c0.8,5.4,1.4,11.3,3.7,16.3c0.4,1,0,2.5-1,2.9c-1,0.4-2.5,0-2.9-1c-2.5-5.4-3.1-11.8-4.1-17.3
	C1429.9,538.7,1428.7,528.6,1427.7,518.5z"/>
<path class="st2" d="M1458.9,513.8c0,0.2,0.2,1.9,0.2,2.5c0.2,3.1,0.4,6,0.6,9.1c0.6,8.7,1.2,17.5,2.7,26.2
	c0.4,3.5,0.6,8.5,2.9,11.3c0.6,1,0.4,2.3-0.4,3.1c-1,0.6-2.3,0.4-3.1-0.4c-2.7-3.5-3.1-9.3-3.7-13.2c-1.2-8.7-2.1-17.5-2.7-26.4
	c-0.2-3.1-0.4-6.2-0.6-9.3c0-0.6-0.2-1.7-0.2-2.5c0-0.6,0.2-1.2,0.4-1.9c0.6-1,1.8-1.4,2.9-1
	C1458.9,511.5,1459.3,512.8,1458.9,513.8z"/>
<path class="st2" d="M1485.4,510.1c0,0.4,0,1,0.2,1c0.2,2.5,0.4,4.9,0.6,7.2c0.6,6.2,1.2,12.4,2.1,18.6c0.4,3.3,0.6,7,2.5,9.9
	c0.6,1,0.4,2.3-0.6,3.1c-1,0.6-2.3,0.4-3.1-0.6c-2.1-3.3-2.5-7.6-3.1-11.5c-1-6.2-1.4-12.6-2.3-18.8c-0.2-2.5-0.4-4.9-0.6-7.4
	c0-0.4-0.2-1.6,0-2.3c0.2-1,0.8-1.7,1.4-1.9c1-0.4,2.5,0,2.9,1.2C1485.6,508.9,1485.6,509.5,1485.4,510.1z"/>
<path class="st2" d="M1402.8,521.8c0-1.2,0.8-2.3,2.1-2.3s2.3,0.8,2.3,2.1c0,2.5,0.2,4.9,0.4,7.4c1,10.1,1.6,20.8,5.1,30.5
	c0.4,1-0.2,2.5-1.2,2.7c-1,0.4-2.5-0.2-2.7-1.2c-3.5-10.1-4.3-21-5.3-31.5C1403.2,527,1403,524.5,1402.8,521.8z"/>
<path class="st2" d="M1518.7,487.6c0.4-1,1.2-1.7,2.3-1.4c1.2,0.2,2.1,1.2,1.8,2.5c0,0.4-0.2,0.6-0.4,1c-0.6,1-2.1,1.2-3.1,0.6
	C1518.7,489.5,1518.3,488.4,1518.7,487.6z"/>
<path class="st2" d="M1513.8,496.1c0,0,1-0.4,1.9,0c1,0.4,1.6,1.7,1.2,2.9c-0.2,0.6-0.8,1.2-1.6,1.2c-1,0.2-2.1-0.2-2.5-1.2
	C1512.4,497.7,1512.8,496.5,1513.8,496.1z"/>
<path class="st2" d="M1530.2,501c-0.6,0.8-1.8,1-2.9,0.4c-1-0.6-1.2-2.1-0.6-3.1l0.4-0.4c0.8-0.8,1.8-0.6,2.1-0.4
	c0.6,0.2,1,0.4,1.2,1c0.2,0.2,0.4,0.6,0.2,1.2c0,0.2,0,0.4-0.2,0.8C1530.5,500.8,1530.5,500.8,1530.2,501z M1530,501.2
	c-0.4,0.4-1.2,0.6-1.8,0.6C1528.6,501.8,1529.4,501.8,1530,501.2z M1526.8,500.4c-0.2-0.4-0.2-0.6-0.2-1
	C1526.5,500,1526.5,500.2,1526.8,500.4z M1526.5,499.6c0-0.2,0.2-0.6,0.2-0.8C1526.5,499,1526.5,499.4,1526.5,499.6z"/>
<path class="st2" d="M1360.7,511.3c0.4,0,1,0,1.4,0.4c1,0.6,1.2,2.1,0.4,3.1c-0.2,0.4-1,1-1.8,0.8c-0.8,0-1.4-0.6-1.8-1
	c-0.6-1-0.4-2.3,0.6-3.1C1359.9,511.5,1360.3,511.3,1360.7,511.3z"/>
<path class="st2" d="M1369.9,516.9C1369.9,516.9,1370.1,516.9,1369.9,516.9c0.6-1,1.8-1.4,2.9-0.8c1,0.4,1.6,1.9,1,2.9v0.2
	c-0.4,1-1.6,1.4-2.7,1c-1-0.4-1.6-1.7-1.2-2.9C1369.9,517.1,1369.9,516.9,1369.9,516.9z"/>
<path class="st2" d="M1360.7,524.5c1-0.4,2.3,0.2,2.7,1.4c0.4,1-0.2,2.3-1.4,2.7c-0.2,0-0.2,0-0.4,0c-1.2,0.2-2.3-0.4-2.7-1.6
	C1358.8,526,1359.7,524.7,1360.7,524.5z"/>
<g>
	<g transform="translate(52.87589, 638.810898)">
		<g>
			<path d="M177.3,219.3c-19.6,0-37.9-4.1-55-12.2c-17.1-8.1-32-19.6-44.9-34.5c-12.9-14.9-22.9-32.3-30-52.3
				c-7.2-20-10.7-41.8-10.7-65.5c0-23.8,3.6-45.7,10.7-65.6c7.2-19.9,17.2-37.3,30-52.2c12.9-14.9,27.8-26.3,44.9-34.5
				c17.1-8.1,35.4-12.2,55-12.2c18.1,0,33.4,2.1,45.8,6.2c12.4,4.1,22.4,9.5,29.9,16.1c7.5,6.6,12.9,13.9,16.3,21.7
				c3.4,7.8,5.1,15.3,5.1,22.4c0,11-2.2,20.9-6.5,29.7c-4.3,8.8-9.9,16.9-16.6,24c-6.7,7.2-14,13.9-21.6,20.1
				c-7.7,6.2-14.9,12.2-21.7,17.9c-6.7,5.7-12.3,11.4-16.6,17.1c-4.3,5.7-6.5,11.7-6.5,18c0,4.8,0.8,8.8,2.4,11.9
				c1.6,3.1,4,6,7.1,8.7c-5.7,1.3-10.6,0.4-14.7-2.5c-4.1-3-7.3-7-9.5-12c-2.2-5.1-3.3-10-3.3-14.9c0-9.3,2.2-17.7,6.5-25.1
				c4.3-7.5,9.8-14.4,16.6-20.7c6.8-6.3,13.9-12.3,21.3-18c7.5-5.7,14.6-11.4,21.4-17.2s12.3-11.9,16.6-18.3
				c4.3-6.4,6.5-13.4,6.5-21c0-18.8-6.5-33.5-19.5-44.1c-13-10.6-32.6-16-59-16c-16.4,0-31.5,4-45.2,12c-13.7,8-25.6,19.2-35.6,33.7
				c-10,14.4-17.8,31.4-23.2,50.9c-5.5,19.5-8.2,40.8-8.2,64c0,23,2.9,44.3,8.9,63.9c5.9,19.6,14,36.6,24.3,51.1
				c10.3,14.4,22.3,25.7,35.9,33.7c13.6,8,28,12,43.1,12c14.1,0,26.2-1.8,36.4-5.4c10.1-3.6,18.7-8,25.6-13.3
				c7-5.3,12.5-10.5,16.6-15.8c4.1-5.3,7.1-9.7,8.9-13.3s2.7-5.4,2.7-5.4h3.5v42.4c-12.6,4-26.3,7.4-41.1,10.3
				C215,217.8,197.5,219.3,177.3,219.3z"/>
		</g>
	</g>
</g>
<g>
	<g transform="translate(257.257168, 638.810898)">
		<g>
			<path d="M95.2,157.6c0-13.1,3.1-24.8,9.2-35.2c6.1-10.4,14-19.9,23.5-28.5c9.6-8.5,19.8-16.3,30.5-23.4
				c10.8-7.1,20.9-13.6,30.5-19.6c9.6-6,17.4-11.8,23.6-17.2c6.1-5.5,9.2-11,9.2-16.4c0-3-0.7-5.1-2.2-6.5c-1.5-1.4-3.3-2.1-5.4-2.1
				c-3.8,0-7.3,1.7-10.6,5.1c-3.3,3.4-6.5,7.2-9.6,11.5c-3.2,4.3-6.6,8.2-10.3,11.5c-3.7,3.4-7.7,5-12.2,5c-4.4,0-7.1-1.8-8.1-5.4
				c-0.9-3.6-0.7-7.4,0.8-11.4c4.8-12.6,9.3-24.4,13.3-35.2c4-10.9,8-21.4,11.9-31.6c3.9-10.2,7.9-20.8,12-31.8
				c4.1-11,8.7-23,13.8-36.1h3.1l101.2,267.1c7,17.3,13.5,30.3,19.6,39.1c6.1,8.7,14,13.1,23.7,13.1v3.2H259v-3.2
				c11.2,0,19.6-1.5,25.4-4.4c5.8-3,9.5-7.1,11.2-12.3c1.7-5.3,1.9-11.4,0.6-18.3c-1.3-7-3.4-14.4-6.3-22.5L250.8,48.9
				c1.3,10.1,1.9,22.8,1.9,37.9c0,25.5-4,48.3-11.9,68.3c-7.9,20-19.3,35.7-34.1,47.1c-14.8,11.4-32.8,17.1-53.9,17.1
				c-12.2,0-22.6-2.8-31.1-8.5c-8.5-5.7-15.1-13.2-19.6-22.6C97.5,178.7,95.2,168.6,95.2,157.6z M122.1,151.6
				c0,14.8,4.4,27.2,13.3,37.3c8.9,10.1,21,15.2,36.4,15.2c13.3,0,24.8-3.6,34.5-10.8c9.7-7.2,17.8-16.5,24.2-28.1
				c6.4-11.6,11.2-24.2,14.4-37.9c3.2-13.7,4.8-27,4.8-39.8c0-11.8-0.4-22.3-1.1-31.6c-0.7-9.3-2.6-18.5-5.5-27.8L204.6-72.9
				l-36.4,96.7c-2.1,5.5-2.7,9.3-1.8,11.6c1,2.2,2.7,3.3,5.2,3.3c3.6,0,7.1-1.7,10.4-5.1c3.4-3.4,6.8-7.2,10.1-11.5
				c3.4-4.3,6.9-8.2,10.6-11.5c3.7-3.4,7.6-5.1,11.9-5.1c3,0,5.4,1,7.4,3c2,2,3,5.1,3,9.3c0,7-2.5,13.3-7.4,19.1
				c-4.9,5.8-11.3,11.4-19.1,16.9c-7.8,5.5-16.1,11.3-25,17.4c-8.8,6.1-17.2,12.9-25,20.4c-7.8,7.5-14.2,16.1-19.1,25.8
				C124.6,127.2,122.1,138.5,122.1,151.6z"/>
		</g>
	</g>
</g>
<g>
	<g transform="translate(472.070833, 638.810898)">
		<g>
			<path d="M166.8,209.8c9.1,0,15.7-2.7,19.8-8.2c4.1-5.5,6.7-14.4,7.7-26.9c1.1-12.4,1.6-29,1.6-49.6V-15.3
				c0-20.9-0.5-37.5-1.6-49.8c-1-12.3-3.6-21.2-7.7-26.7c-4.1-5.5-10.7-8.2-19.8-8.2v-3.2h226v42.7h-3.1v-1.3
				c0-10.5-10-19.5-29.9-27c-19.9-7.5-48.1-11.2-84.6-11.2h-52.2V40c1.9-4.2,6.1-8.4,12.6-12.5c6.5-4.1,14.6-6.2,24-6.2
				c7.8,0,14.9,1,21.3,3c6.4,2,12.5,4.3,18.3,6.8c5.8,2.5,11.6,4.8,17.5,6.8c5.9,2,12.3,3,19.3,3c6.1,0,11.5-1.6,16.3-4.9
				c4.8-3.3,7.1-7.7,7.1-13.1h3.2c0,9.3-3.6,17.4-10.9,24.4c-7.3,6.9-17.1,10.4-29.6,10.4c-9.7,0-18.1-1.4-25.3-4.3
				c-7.2-2.8-13.6-6.1-19.3-9.6c-5.7-3.6-11.1-6.8-16.3-9.6c-5.2-2.8-10.6-4.3-16.3-4.3c-8.2,0-14,2.8-17.2,8.4
				c-3.3,5.6-4.9,12.1-4.9,19.4V125c0,20.7,0.5,37.2,1.6,49.6c1.1,12.4,3.6,21.4,7.8,26.9c4.1,5.5,10.7,8.2,19.8,8.2v3.2h-85.4
				V209.8z"/>
		</g>
	</g>
</g>
<g>
	<g transform="translate(662.937404, 638.810898)">
		<g>
			<path d="M456.8,212.9H230.5v-3.2c9.1,0,15.7-2.7,19.8-8.2c4.1-5.5,6.7-14.4,7.7-26.9c1.1-12.4,1.6-29,1.6-49.6V-15.3
				c0-20.9-0.5-37.5-1.6-49.8c-1-12.3-3.6-21.2-7.7-26.7c-4.1-5.5-10.7-8.2-19.8-8.2v-3.2h226.4v42.7h-3.2v-1.3
				c0-10.5-10-19.5-29.9-27c-19.9-7.5-48.1-11.2-84.6-11.2h-52.5V35.9c4.8-4.6,10.4-8.2,16.6-10.8c6.2-2.5,12.9-3.8,20.1-3.8
				c7.8,0,14.9,1,21.3,3c6.4,2,12.5,4.3,18.3,6.8c5.8,2.5,11.6,4.8,17.5,6.8c5.9,2,12.3,3,19.3,3c6.1,0,11.5-1.6,16.3-4.9
				c4.8-3.3,7.1-7.7,7.1-13.1h3.2c0,9.3-3.6,17.4-10.9,24.4c-7.3,6.9-17.1,10.4-29.6,10.4c-9.7,0-18.1-1.4-25.3-4.1
				c-7.2-2.7-13.6-5.9-19.3-9.5c-5.7-3.6-11.1-6.8-16.3-9.6c-5.2-2.8-10.6-4.4-16.3-4.6c-4.6-0.2-8.9,0.7-12.6,2.8
				c-3.8,2.1-7,4.9-9.5,8.2v168.8h40.5c5.1,0,11.6-0.2,19.8-0.5c8.1-0.3,16.9-1,26.4-2.1c9.5-1.1,18.9-2.7,28.3-4.9
				c9.4-2.2,18-5.1,25.9-8.7c7.9-3.6,14.2-8.1,19-13.4c4.8-5.4,7.1-11.9,7.1-19.4h3.2V212.9z M315.5-131.7h10.1
				c6.8,0,12.1-1.4,16-4.1c3.9-2.7,7.1-5.8,9.6-9.3c2.5-3.5,4.9-6.6,7.3-9.3c2.3-2.8,5.4-4.1,9.2-4.1c3,0,5.2,0.8,6.6,2.5
				c1.5,1.7,2.2,3.7,2.2,6c0,4.2-2,8-6,11.2c-4,3.3-8.8,5.8-14.5,7.6c-5.7,1.8-11.2,2.7-16.4,2.7h-24V-131.7z"/>
		</g>
	</g>
</g>
<g>
	<g transform="translate(62.184599, 337.82087)">
		<g>
			<path d="M26.6,78.1c0-8.1,1.9-15.5,5.7-22C36.2,49.7,41,43.8,47,38.4c6-5.3,12.3-10.2,19-14.6c6.7-4.4,13-8.5,19-12.2
				c6-3.8,10.9-7.3,14.7-10.7c3.8-3.4,5.7-6.8,5.7-10.3c0-1.8-0.5-3.2-1.4-4c-0.9-0.9-2-1.3-3.4-1.3c-2.4,0-4.6,1.1-6.6,3.2
				c-2,2.1-4,4.5-6,7.2c-2,2.7-4.1,5.1-6.4,7.2C79.4,5,76.9,6,74.1,6c-2.8,0-4.4-1.1-5-3.3c-0.6-2.2-0.4-4.6,0.5-7.1
				c3-7.9,5.8-15.2,8.3-22c2.5-6.8,5-13.3,7.4-19.7c2.4-6.4,4.9-13,7.5-19.8c2.6-6.8,5.4-14.3,8.6-22.5h2l63,166.5
				c4.3,10.8,8.4,18.9,12.2,24.3c3.8,5.4,8.7,8.2,14.8,8.2v2h-64.6v-2c7,0,12.2-0.9,15.9-2.8c3.6-1.8,5.9-4.4,7-7.7
				c1.1-3.3,1.2-7.1,0.4-11.4c-0.8-4.3-2.1-9-3.9-14l-24.4-64.4c0.8,6.3,1.2,14.2,1.2,23.6c0,15.9-2.5,30.1-7.4,42.6
				c-4.9,12.5-12,22.3-21.3,29.4c-9.3,7.1-20.5,10.6-33.6,10.6c-7.6,0-14.1-1.8-19.4-5.3c-5.3-3.6-9.4-8.3-12.2-14.1
				C28.1,91.3,26.6,85,26.6,78.1z M43.4,74.4c0,9.2,2.8,16.9,8.3,23.2c5.5,6.3,13.1,9.5,22.7,9.5c8.3,0,15.4-2.2,21.5-6.7
				c6-4.5,11.1-10.3,15.1-17.5c4-7.2,7-15.1,9-23.6c2-8.5,3-16.8,3-24.8c0-7.4-0.2-13.9-0.7-19.7c-0.5-5.8-1.6-11.6-3.4-17.3
				L94.8-65.5L72.1-5.2c-1.3,3.4-1.7,5.8-1.1,7.2c0.6,1.4,1.7,2.1,3.2,2.1c2.2,0,4.4-1,6.5-3.1c2.1-2.1,4.2-4.5,6.3-7.2
				c2.1-2.7,4.3-5.1,6.6-7.2c2.3-2.1,4.8-3.1,7.4-3.1c1.8,0,3.4,0.6,4.6,1.9s1.9,3.2,1.9,5.8c0,4.3-1.5,8.3-4.6,11.9
				c-3.1,3.6-7.1,7.1-11.9,10.5c-4.9,3.4-10.1,7-15.6,10.8c-5.5,3.8-10.7,8-15.6,12.7c-4.9,4.7-8.8,10-11.9,16
				C44.9,59.1,43.4,66.2,43.4,74.4z"/>
		</g>
	</g>
</g>
<g>
	<g transform="translate(196.041917, 337.82087)">
		<g>
			<path d="M71.3,112.6v-2c5.6,0,9.7-1.7,12.3-5.1c2.6-3.4,4.2-9,4.8-16.8c0.7-7.8,1-18.1,1-30.9v-87.5c0-13-0.3-23.3-1-31
				c-0.7-7.7-2.3-13.2-4.8-16.6c-2.6-3.4-6.7-5.1-12.3-5.1v-2h23.6c7.2,0,13.8-0.3,19.8-1c6-0.7,12-1.3,18.1-2c6.1-0.7,13-1,20.6-1
				c14.1,0,25.9,2.4,35.6,7.2c9.7,4.8,17.1,11.3,22.2,19.6c5.1,8.3,7.6,17.8,7.6,28.6c0,8.9-2.3,17.3-7,25.2
				c-4.7,7.9-11.2,14.2-19.6,19c-8.4,4.8-18.3,7.2-29.7,7.2c-4.6,0-8.9-0.6-12.8-1.9c-3.9-1.2-7.5-2.7-10.8-4.4
				c-3.2-1.7-6.1-3.2-8.8-4.4c-2.6-1.2-5-1.9-7.1-1.9c-1.2,0-2.4,0.3-3.8,0.9c-1.3,0.6-2,2-2,4.2c0,2.5,1.4,4.7,4.3,6.7
				c2.9,2,6.6,3.9,11.2,5.9c4.6,2,9.5,4.1,14.8,6.5c5.3,2.4,10.3,5.3,15.2,8.7c4.9,3.4,8.9,7.6,12,12.6c3.9,6,8,12.5,12.2,19.4
				c4.2,6.9,8.6,13.4,13.3,19.4c4.7,6,9.6,11,14.7,14.8c5.1,3.8,10.5,5.7,16.2,5.7v2h-30.1c-2.2,0-4.4-0.9-6.6-2.8
				c-2.2-1.8-4.8-5-8-9.4c-3.2-4.4-7.2-10.4-12.1-18c-4.9-7.6-11.2-17.3-19-29c-4.7-7.2-9.5-12.9-14.2-17.1
				c-4.7-4.2-9-7.6-12.9-10.1c-3.9-2.6-7-5-9.4-7.3c-2.4-2.3-3.5-5.1-3.5-8.4c0-2.4,0.7-4.1,2.2-5.1c1.4-1.1,3-1.6,4.7-1.6
				c2.9,0,5.7,0.6,8.5,1.7c2.8,1.1,5.6,2.4,8.6,3.9c3,1.5,6.2,2.8,9.8,3.9c3.6,1.1,7.6,1.7,12.2,1.7c6.2,0,11.8-1.4,16.8-4.1
				c5-2.8,9.2-6.4,12.8-10.9c3.6-4.5,6.3-9.6,8.2-15.4c1.9-5.7,2.9-11.5,2.9-17.5c0-10.9-2.4-20.3-7.3-28.1
				c-4.9-7.9-11.8-14-20.7-18.2c-8.9-4.3-19.5-6.4-31.7-6.4c-7.2,0-13.5,0.5-18.9,1.5c-5.4,1-11.1,2.6-17.1,4.8V57.8
				c0,12.9,0.3,23.2,1,30.9c0.7,7.8,2.3,13.3,4.8,16.8c2.6,3.4,6.7,5.1,12.3,5.1v2H71.3z"/>
		</g>
	</g>
</g>
<g>
	<g transform="translate(329.308262, 337.82087)">
		<g>
			<path d="M209.2,116.5c-12.2,0-23.6-2.5-34.3-7.6c-10.6-5.1-20-12.2-28-21.5c-8-9.3-14.3-20.1-18.7-32.6
				c-4.5-12.5-6.7-26.1-6.7-40.8c0-14.8,2.2-28.5,6.7-40.9C132.7-39.2,139-50,147-59.3c8-9.3,17.3-16.4,28-21.5
				c10.6-5.1,22.1-7.6,34.3-7.6c12.2,0,23.7,2.5,34.3,7.6c10.6,5.1,20,12.2,28,21.5c8,9.2,14.2,20.1,18.7,32.5
				c4.5,12.4,6.7,26,6.7,40.9c0,14.7-2.2,28.3-6.7,40.8c-4.5,12.5-10.7,23.3-18.7,32.6c-8,9.2-17.3,16.4-28,21.5
				C232.9,114,221.5,116.5,209.2,116.5z M209.2-86c-10.2,0-19.6,2.5-28.2,7.5c-8.5,5-15.9,12-22.2,21c-6.2,9-11.1,19.6-14.5,31.7
				c-3.4,12.2-5.1,25.5-5.1,39.9c0,14.3,1.8,27.6,5.5,39.8c3.7,12.2,8.7,22.8,15.2,31.8c6.4,9,13.9,16,22.4,21
				c8.5,5,17.4,7.5,26.9,7.5c9.5,0,18.4-2.5,26.9-7.5c8.5-5,15.9-12,22.4-21c6.4-9,11.5-19.6,15.2-31.8c3.7-12.2,5.5-25.5,5.5-39.8
				c0-14.4-1.7-27.7-5.1-39.9c-3.4-12.2-8.2-22.7-14.5-31.7c-6.2-9-13.6-16-22.2-21C228.9-83.5,219.5-86,209.2-86z"/>
		</g>
	</g>
</g>
<g>
	<g transform="translate(482.963378, 337.82087)">
		<g>
			<path d="M166.9-84.4h31.7l75.6,158.8l59.1-158.8H368v2c-5.6,0-9.7,1.7-12.3,5.1c-2.6,3.4-4.2,9-4.8,16.6c-0.7,7.7-1,18-1,31v87.5
				c0,12.9,0.3,23.2,1,30.9c0.7,7.8,2.3,13.3,4.8,16.8c2.6,3.4,6.7,5.1,12.3,5.1v2h-53.2v-2c5.7,0,9.8-1.7,12.3-5.1
				c2.6-3.4,4.2-9,4.8-16.8c0.7-7.8,1-18.1,1-30.9V-77.9c-7.1,18.9-14.1,37.8-21.1,56.5c-7,18.8-14.1,38-21.3,57.6
				c-7.2,19.6-14.9,40.3-23,62h-1.8c-6.2-13.3-11.9-25.6-17.3-36.9c-5.3-11.4-10.4-22.2-15.2-32.6c-4.8-10.4-9.6-20.7-14.5-31
				c-4.9-10.3-9.9-21-15-32.1c-5.1-11.1-10.7-23.1-16.7-36L187,14.1v25c0,14.3,0.9,26.1,2.8,35.5c1.8,9.3,4.3,16.6,7.5,21.9
				c3.2,5.2,6.7,8.9,10.6,11c3.9,2.1,8,3.1,12.2,3.1v2h-53.2v-2c5.6,0,9.7-1.7,12.3-5.1c2.6-3.4,4.2-9,4.8-16.8
				c0.7-7.8,1-18.1,1-30.9v-87.5c0-13-0.3-23.3-1-31c-0.7-7.7-2.3-13.2-4.8-16.6c-2.6-3.4-6.7-5.1-12.3-5.1V-84.4z"/>
		</g>
	</g>
</g>
<g>
	<g transform="translate(647.108335, 337.82087)">
		<g>
			<path d="M221.6,78.1c0-8.1,1.9-15.5,5.7-22c3.8-6.5,8.7-12.4,14.7-17.7c6-5.3,12.3-10.2,19-14.6c6.7-4.4,13-8.5,19-12.2
				c6-3.8,10.9-7.3,14.7-10.7c3.8-3.4,5.7-6.8,5.7-10.3c0-1.8-0.5-3.2-1.4-4c-0.9-0.9-2-1.3-3.4-1.3c-2.4,0-4.6,1.1-6.6,3.2
				c-2,2.1-4,4.5-6,7.2c-2,2.7-4.1,5.1-6.4,7.2C274.4,5,271.8,6,269.1,6c-2.8,0-4.4-1.1-5-3.3c-0.6-2.2-0.4-4.6,0.5-7.1
				c3-7.9,5.8-15.2,8.3-22c2.5-6.8,5-13.3,7.4-19.7c2.4-6.4,4.9-13,7.5-19.8c2.6-6.8,5.4-14.3,8.6-22.5h2l63,166.5
				c4.3,10.8,8.4,18.9,12.2,24.3c3.8,5.4,8.7,8.2,14.8,8.2v2h-64.6v-2c7,0,12.2-0.9,15.9-2.8c3.6-1.8,5.9-4.4,7-7.7
				c1.1-3.3,1.2-7.1,0.4-11.4c-0.8-4.3-2.1-9-3.9-14l-24.4-64.4c0.8,6.3,1.2,14.2,1.2,23.6c0,15.9-2.5,30.1-7.4,42.6
				c-4.9,12.5-12,22.3-21.3,29.4c-9.3,7.1-20.5,10.6-33.6,10.6c-7.6,0-14.1-1.8-19.4-5.3c-5.3-3.6-9.4-8.3-12.2-14.1
				C223,91.3,221.6,85,221.6,78.1z M238.3,74.4c0,9.2,2.8,16.9,8.3,23.2c5.5,6.3,13.1,9.5,22.7,9.5c8.3,0,15.4-2.2,21.5-6.7
				c6-4.5,11.1-10.3,15.1-17.5c4-7.2,7-15.1,9-23.6c2-8.5,3-16.8,3-24.8c0-7.4-0.2-13.9-0.7-19.7c-0.5-5.8-1.6-11.6-3.4-17.3
				l-23.9-62.8L267.1-5.2c-1.3,3.4-1.7,5.8-1.1,7.2c0.6,1.4,1.7,2.1,3.2,2.1c2.2,0,4.4-1,6.5-3.1c2.1-2.1,4.2-4.5,6.3-7.2
				c2.1-2.7,4.3-5.1,6.6-7.2c2.3-2.1,4.8-3.1,7.4-3.1c1.8,0,3.4,0.6,4.6,1.9s1.9,3.2,1.9,5.8c0,4.3-1.5,8.3-4.6,11.9
				c-3.1,3.6-7.1,7.1-11.9,10.5c-4.9,3.4-10.1,7-15.6,10.8c-5.5,3.8-10.7,8-15.6,12.7c-4.9,4.7-8.8,10-11.9,16
				C239.9,59.1,238.3,66.2,238.3,74.4z"/>
		</g>
	</g>
</g>
</svg>
