<svg width="160" height="68" viewBox="0 0 160 68" fill="none" xmlns="http://www.w3.org/2000/svg">
<path d="M77.2747 32.5666C76.807 32.5666 76.3538 32.3912 75.9153 32.0403C75.506 31.6895 75.3014 31.2364 75.3014 30.6809C75.3014 30.447 75.3452 30.1985 75.4329 29.9354L80.9584 15.5077C81.1631 14.9815 81.4993 14.5868 81.967 14.3237C82.4348 14.0606 82.9172 13.929 83.4142 13.929C83.9404 13.929 84.4374 14.0606 84.9052 14.3237C85.4022 14.5868 85.753 14.9815 85.9577 15.5077L91.8778 29.8477C91.9363 29.9646 91.9655 30.0816 91.9655 30.1985C91.9655 30.3155 91.9655 30.4324 91.9655 30.5493C91.9655 31.1633 91.7609 31.6457 91.3516 31.9965C90.9423 32.3473 90.4892 32.5227 89.9922 32.5227C89.6413 32.5227 89.2905 32.4204 88.9397 32.2158C88.6181 32.0403 88.3842 31.748 88.238 31.3387L86.9663 27.9182C86.937 27.7427 86.8201 27.655 86.6155 27.655H80.6953C80.4906 27.655 80.3591 27.7427 80.3006 27.9182L79.0727 31.3825C78.8681 31.7626 78.605 32.055 78.2834 32.2596C77.9618 32.4643 77.6256 32.5666 77.2747 32.5666ZM82.274 24.2345H84.8613C85.0367 24.2345 85.1683 24.176 85.256 24.0591C85.373 23.9129 85.4022 23.7375 85.3437 23.5328L84.2035 20.4193C84.0281 19.9515 83.8089 19.7176 83.5457 19.7176C83.2826 19.7176 83.0634 19.9661 82.8879 20.4631L81.7916 23.5767C81.7331 23.7521 81.7478 23.9129 81.8355 24.0591C81.9232 24.176 82.0694 24.2345 82.274 24.2345ZM96.3577 32.435C95.8022 32.435 95.3345 32.2742 94.9544 31.9526C94.5743 31.631 94.3843 31.2218 94.3843 30.7248V20.9016C94.3843 20.4339 94.5597 20.0392 94.9106 19.7176C95.2906 19.3668 95.773 19.1914 96.3577 19.1914C96.8839 19.1914 97.3079 19.3522 97.6294 19.6738C97.9803 19.9661 98.1849 20.3316 98.2434 20.7701C98.565 20.2731 99.0035 19.8492 99.559 19.4983C100.114 19.1475 100.699 18.9721 101.313 18.9721C101.693 18.9721 102.059 19.016 102.409 19.1037C102.819 19.2206 103.155 19.4545 103.418 19.8053C103.681 20.1269 103.813 20.507 103.813 20.9455C103.813 21.5594 103.608 22.0711 103.199 22.4804C102.819 22.8604 102.366 22.992 101.839 22.875C101.459 22.7873 101.079 22.7435 100.699 22.7435C100.027 22.7435 99.4713 22.9774 99.0327 23.4451C98.5942 23.9129 98.3311 24.863 98.2434 26.2956V30.6809C98.2434 31.1779 98.0534 31.6018 97.6733 31.9526C97.3225 32.2742 96.8839 32.435 96.3577 32.435ZM111.399 32.5666C110.142 32.5666 108.987 32.2742 107.935 31.6895C106.882 31.1048 106.035 30.3008 105.391 29.2776C104.778 28.2251 104.471 27.0411 104.471 25.7255C104.471 24.3807 104.778 23.2112 105.391 22.2172C106.035 21.194 106.882 20.4046 107.935 19.8492C108.987 19.2645 110.142 18.9721 111.399 18.9721C112.686 18.9721 113.84 19.2645 114.864 19.8492C115.916 20.4046 116.749 21.194 117.363 22.2172C117.977 23.2112 118.284 24.3807 118.284 25.7255C118.284 27.0411 117.977 28.2251 117.363 29.2776C116.749 30.3008 115.916 31.1048 114.864 31.6895C113.84 32.2742 112.686 32.5666 111.399 32.5666ZM111.399 29.0145C112.306 29.0145 113.037 28.7075 113.592 28.0936C114.177 27.4504 114.469 26.661 114.469 25.7255C114.469 24.7607 114.177 23.986 113.592 23.4013C113.037 22.8166 112.306 22.5242 111.399 22.5242C110.522 22.5242 109.777 22.8166 109.163 23.4013C108.578 23.986 108.286 24.7607 108.286 25.7255C108.286 26.661 108.578 27.4504 109.163 28.0936C109.777 28.7075 110.522 29.0145 111.399 29.0145ZM122.909 32.5666C122.354 32.5666 121.886 32.4058 121.506 32.0842C121.126 31.7626 120.936 31.3533 120.936 30.8563V20.9016C120.936 20.4339 121.111 20.0392 121.462 19.7176C121.842 19.3668 122.325 19.1914 122.909 19.1914C123.582 19.1914 124.093 19.4253 124.444 19.893C124.59 20.0684 124.678 20.2439 124.707 20.4193C125.058 19.9807 125.526 19.6299 126.111 19.3668C126.695 19.1037 127.353 18.9721 128.084 18.9721C130.072 18.9721 131.505 19.6299 132.382 20.9455C132.908 20.3023 133.551 19.8199 134.311 19.4983C135.071 19.1475 135.861 18.9721 136.679 18.9721C138.316 18.9721 139.603 19.4545 140.538 20.4193C141.503 21.384 141.986 22.9189 141.986 25.0238V30.944C141.986 31.4118 141.795 31.8065 141.415 32.1281C141.065 32.4204 140.611 32.5666 140.056 32.5666C139.501 32.5666 139.033 32.4058 138.653 32.0842C138.302 31.7626 138.126 31.3533 138.126 30.8563V25.5062C138.126 24.4245 137.936 23.6498 137.556 23.182C137.176 22.7142 136.635 22.4804 135.934 22.4804C135.232 22.4804 134.662 22.6996 134.224 23.1382C133.814 23.5475 133.536 24.0445 133.39 24.6292V30.944C133.39 31.4118 133.2 31.8065 132.82 32.1281C132.469 32.4204 132.016 32.5666 131.461 32.5666C130.905 32.5666 130.438 32.4058 130.057 32.0842C129.707 31.7626 129.531 31.3533 129.531 30.8563V25.5062C129.531 24.4245 129.341 23.6498 128.961 23.182C128.581 22.7142 128.04 22.4804 127.339 22.4804C126.666 22.4804 126.111 22.6996 125.672 23.1382C125.234 23.5475 124.941 24.0298 124.795 24.5853V30.8125C124.795 31.3095 124.605 31.7334 124.225 32.0842C123.874 32.4058 123.436 32.5666 122.909 32.5666ZM150.962 32.5666C149.003 32.5666 147.41 31.9526 146.182 30.7248C144.983 29.4676 144.384 27.8012 144.384 25.7255C144.384 23.6498 144.968 22.0126 146.138 20.8139C147.337 19.5861 148.901 18.9721 150.83 18.9721C152.204 18.9721 153.403 19.4545 154.426 20.4193C154.543 20.0684 154.762 19.7761 155.084 19.5422C155.405 19.3083 155.786 19.1914 156.224 19.1914C156.809 19.1914 157.277 19.3668 157.627 19.7176C158.007 20.0392 158.197 20.4339 158.197 20.9016V30.8563C158.197 31.3533 158.007 31.7626 157.627 32.0842C157.277 32.4058 156.809 32.5666 156.224 32.5666C155.259 32.5666 154.66 32.1427 154.426 31.2948C153.491 32.1427 152.336 32.5666 150.962 32.5666ZM151.269 29.0145C152.204 29.0145 152.95 28.7075 153.505 28.0936C154.061 27.4504 154.338 26.661 154.338 25.7255C154.338 24.7607 154.061 23.986 153.505 23.4013C152.95 22.8166 152.204 22.5242 151.269 22.5242C150.362 22.5242 149.617 22.8166 149.032 23.4013C148.477 23.986 148.199 24.7607 148.199 25.7255C148.199 26.661 148.477 27.4504 149.032 28.0936C149.617 28.7075 150.362 29.0145 151.269 29.0145Z" fill="#C95723"/>
<path d="M85.3822 43.8067C85.7117 43.9714 85.9017 44.2311 85.9524 44.5859C86.0158 44.9407 85.9271 45.2638 85.6863 45.5552C85.5216 45.7833 85.3062 45.91 85.0401 45.9354C84.7867 45.9607 84.5269 45.91 84.2608 45.7833C83.9567 45.6439 83.6336 45.5362 83.2915 45.4602C82.9621 45.3842 82.6136 45.3462 82.2461 45.3462C81.5619 45.3462 80.9474 45.4539 80.4025 45.6693C79.8703 45.8847 79.4142 46.1951 79.0341 46.6006C78.6539 46.9934 78.3625 47.4622 78.1598 48.0071C77.9697 48.5519 77.8747 49.1538 77.8747 49.8127C77.8747 50.5856 77.9824 51.2572 78.1978 51.8274C78.4258 52.3976 78.7363 52.8727 79.1291 53.2529C79.5219 53.633 79.9844 53.9181 80.5166 54.1082C81.0487 54.2856 81.6253 54.3743 82.2461 54.3743C82.5883 54.3743 82.9304 54.3426 83.2725 54.2792C83.6146 54.2159 83.9441 54.1018 84.2608 53.9371C84.5269 53.8104 84.7867 53.766 85.0401 53.8041C85.3062 53.8421 85.5279 53.9751 85.7053 54.2032C85.9587 54.52 86.0474 54.8494 85.9714 55.1915C85.9081 55.521 85.718 55.7617 85.4012 55.9138C85.0718 56.0785 84.7297 56.2179 84.3749 56.3319C84.0328 56.4333 83.6843 56.5093 83.3295 56.56C82.9747 56.6234 82.6136 56.655 82.2461 56.655C81.3338 56.655 80.4659 56.5093 79.6423 56.2179C78.8313 55.9264 78.1027 55.4956 77.4565 54.9254C76.823 54.3552 76.3225 53.6457 75.955 52.7967C75.5875 51.9351 75.4038 50.9404 75.4038 49.8127C75.4038 48.837 75.5685 47.9374 75.898 47.1138C76.2401 46.2902 76.7153 45.5806 77.3235 44.9851C77.9443 44.3768 78.6729 43.908 79.5092 43.5786C80.3455 43.2365 81.2578 43.0654 82.2461 43.0654C82.8037 43.0654 83.3485 43.1288 83.8807 43.2555C84.4129 43.3822 84.9134 43.5659 85.3822 43.8067ZM92.8699 46.1444L88.7645 55.7997C88.6758 56.0405 88.5364 56.2306 88.3463 56.3699C88.1689 56.4966 87.9725 56.56 87.7571 56.56C87.415 56.56 87.1616 56.465 86.9969 56.2749C86.8322 56.0848 86.7498 55.8504 86.7498 55.5717C86.7498 55.4576 86.7688 55.3372 86.8068 55.2105L91.5394 43.8447C91.6408 43.5912 91.7928 43.3948 91.9956 43.2555C92.211 43.1161 92.4391 43.0591 92.6798 43.0844C92.9079 43.0844 93.117 43.1541 93.307 43.2935C93.5098 43.4202 93.6555 43.6039 93.7442 43.8447L98.4198 54.9825C98.4831 55.1472 98.5148 55.2992 98.5148 55.4386C98.5148 55.7807 98.4008 56.0532 98.1727 56.2559C97.9573 56.4586 97.7165 56.56 97.4504 56.56C97.2224 56.56 97.0133 56.4903 96.8232 56.3509C96.6458 56.2115 96.5065 56.0215 96.4051 55.7807L92.3187 46.2585L92.8699 46.1444ZM89.3537 53.4809L90.399 51.2952H95.5308L95.8919 53.4809H89.3537ZM101.322 56.465C100.967 56.465 100.675 56.3573 100.447 56.1419C100.232 55.9138 100.124 55.635 100.124 55.3056V44.3198C100.124 43.9904 100.232 43.718 100.447 43.5025C100.675 43.2745 100.954 43.1604 101.284 43.1604H107.461C107.79 43.1604 108.062 43.2681 108.278 43.4835C108.506 43.6863 108.62 43.9524 108.62 44.2818C108.62 44.5606 108.506 44.8077 108.278 45.0231C108.062 45.2385 107.79 45.3462 107.461 45.3462H102.329L102.5 45.1181V48.9384L102.367 48.6913H106.605C106.935 48.6913 107.207 48.799 107.423 49.0144C107.651 49.2172 107.765 49.4833 107.765 49.8127C107.765 50.0915 107.651 50.3385 107.423 50.554C107.207 50.7694 106.935 50.8771 106.605 50.8771H102.329L102.5 50.706V55.3056C102.5 55.635 102.38 55.9138 102.139 56.1419C101.911 56.3573 101.638 56.465 101.322 56.465ZM111.956 43.1604H118.323C118.653 43.1604 118.925 43.2681 119.141 43.4835C119.369 43.6863 119.483 43.9524 119.483 44.2818C119.483 44.5986 119.369 44.8583 119.141 45.0611C118.925 45.2511 118.653 45.3462 118.323 45.3462H113.001L113.173 45.0231V48.7293L113.02 48.5773H117.468C117.797 48.5773 118.07 48.685 118.285 48.9004C118.513 49.1031 118.627 49.3692 118.627 49.6987C118.627 50.0154 118.513 50.2752 118.285 50.4779C118.07 50.668 117.797 50.763 117.468 50.763H113.077L113.173 50.611V54.4503L113.02 54.2792H118.323C118.653 54.2792 118.925 54.3933 119.141 54.6213C119.369 54.8367 119.483 55.0902 119.483 55.3816C119.483 55.6984 119.369 55.9581 119.141 56.1609C118.925 56.3636 118.653 56.465 118.323 56.465H111.956C111.627 56.465 111.348 56.3573 111.12 56.1419C110.904 55.9138 110.797 55.635 110.797 55.3056V44.3198C110.797 43.9904 110.904 43.718 111.12 43.5025C111.348 43.2745 111.627 43.1604 111.956 43.1604ZM115.206 42.4382C114.965 42.4382 114.769 42.3748 114.617 42.2481C114.478 42.1214 114.408 41.9567 114.408 41.7539C114.408 41.6653 114.427 41.5829 114.465 41.5069C114.516 41.4182 114.585 41.3295 114.674 41.2408L116.309 39.7963C116.448 39.6822 116.594 39.5872 116.746 39.5112C116.91 39.4225 117.075 39.3781 117.24 39.3781C117.455 39.3781 117.677 39.4605 117.905 39.6252C118.133 39.7899 118.247 40.018 118.247 40.3095C118.247 40.4995 118.184 40.6896 118.057 40.8797C117.943 41.057 117.772 41.2028 117.544 41.3168L115.643 42.3241C115.567 42.3748 115.491 42.4065 115.415 42.4192C115.339 42.4318 115.27 42.4382 115.206 42.4382Z" fill="#C95723"/>
<path d="M65.6795 30.4046C64.3683 28.9242 63.9664 26.8727 64.6009 25.0327C65.4892 22.4313 64.3048 19.5761 61.8303 18.3706C60.0749 17.5035 58.9117 15.7692 58.7848 13.8235C58.6156 11.0741 56.4372 8.89566 53.6878 8.72647C51.7421 8.59957 49.9867 7.43635 49.1407 5.68095C47.9352 3.20647 45.08 2.0221 42.4786 2.91038C40.6175 3.54486 38.5871 3.14302 37.1067 1.85291C35.0552 0.034057 31.9674 0.034057 29.9159 1.85291C28.4565 3.14302 26.4051 3.54486 24.5439 2.91038C21.9425 2.0221 19.0874 3.20647 17.8818 5.68095C17.0147 7.43635 15.2805 8.59957 13.3347 8.72647C10.5853 8.89566 8.4069 11.0741 8.2377 13.8235C8.1108 15.7692 6.94758 17.5246 5.19218 18.3706C2.7177 19.5761 1.53333 22.4313 2.42161 25.0327C3.05609 26.8938 2.65425 28.9242 1.36414 30.4046C-0.454713 32.4561 -0.454713 35.5439 1.36414 37.5954C2.65425 39.0547 3.05609 41.1062 2.42161 42.9674C1.53333 45.5688 2.7177 48.4239 5.19218 49.6294C6.94758 50.4966 8.1108 52.2308 8.2377 54.1766C8.4069 56.926 10.5853 59.1044 13.3347 59.2736C15.2805 59.4005 17.0359 60.5637 17.8818 62.3191C19.0874 64.7936 21.9425 65.978 24.5439 65.0897C26.4051 64.4552 28.4354 64.857 29.9159 66.1471C31.9674 67.966 35.0552 67.966 37.1067 66.1471C38.566 64.857 40.6175 64.4552 42.4786 65.0897C45.08 65.978 47.9352 64.7936 49.1407 62.3191C50.0078 60.5637 51.7421 59.4005 53.6878 59.2736C56.4372 59.1044 58.6156 56.926 58.7848 54.1766C58.9117 52.2308 60.0749 50.4754 61.8303 49.6294C64.3048 48.4239 65.4892 45.5688 64.6009 42.9674C63.9664 41.1062 64.3683 39.0759 65.6584 37.5954C67.4984 35.5439 67.4984 32.4561 65.6795 30.4046Z" fill="#FFF5E9"/>
<path d="M51.081 45.0791C56.1228 40.0374 57.0087 32.749 53.0598 28.8001C49.1109 24.8512 41.8225 25.7371 36.7808 30.7789C31.739 35.8207 30.8531 43.109 34.802 47.0579C38.7509 51.0068 46.0392 50.1209 51.081 45.0791Z" fill="#DD9757"/>
<path d="M37.1428 43.6817C36.7323 43.2713 36.7323 42.5623 37.1428 42.1519C38.2622 41.0325 39.195 40.7713 39.9786 40.5474C40.6502 40.3609 41.1353 40.2116 41.8443 39.5027C42.5532 38.7937 42.7025 38.3086 42.889 37.637C43.1129 36.8907 43.3741 35.9206 44.4935 34.8012C45.6129 33.6818 46.5457 33.4206 47.3293 33.1967C48.0009 33.0102 48.486 32.8609 49.195 32.152C49.6054 31.7415 50.3144 31.7415 50.7248 32.152C51.1353 32.5624 51.1353 33.2713 50.7248 33.6818C49.6054 34.8012 48.6726 35.0624 47.889 35.2863C47.2174 35.4728 46.7323 35.6221 46.0233 36.331C45.3144 37.04 45.1651 37.5251 44.9786 38.1967C44.7547 38.943 44.4935 39.9131 43.3741 41.0325C42.2547 42.1519 41.3219 42.4131 40.5383 42.637C39.8667 42.8235 39.3816 42.9728 38.6726 43.6817C38.2622 44.1295 37.5532 44.1295 37.1428 43.6817Z" fill="#C35F41"/>
<path d="M30.8832 39.1969C34.6427 35.4375 33.8158 28.5153 29.0363 23.7358C24.2568 18.9563 17.3346 18.1295 13.5752 21.8889C9.81572 25.6484 10.6426 32.5706 15.4221 37.3501C20.2016 42.1295 27.1237 42.9564 30.8832 39.1969Z" fill="#DD9757"/>
<path d="M16.7702 24.0924C17.1807 23.6819 17.815 23.6819 18.2255 24.0924C19.2702 25.1371 19.5314 26.0327 19.7553 26.7789C19.9419 27.4133 20.0538 27.861 20.7254 28.57C21.3971 29.2416 21.8821 29.3909 22.5165 29.5401C23.2254 29.7267 24.1209 29.9879 25.203 31.0699C26.2478 32.1147 26.509 33.0102 26.7329 33.7565C26.9194 34.3908 27.0314 34.8386 27.703 35.5475C28.1135 35.958 28.1135 36.5923 27.703 37.0027C27.2926 37.4132 26.6582 37.4132 26.2478 37.0027C25.203 35.958 24.9418 35.0625 24.718 34.3162C24.5314 33.6819 24.4194 33.2341 23.7478 32.5252C23.0762 31.8535 22.5911 31.7043 21.9568 31.555C21.2478 31.3685 20.3523 31.1073 19.2702 30.0252C18.2255 28.9804 17.9643 28.0849 17.7404 27.3386C17.5538 26.7043 17.4419 26.2565 16.7702 25.5476C16.3598 25.1371 16.3598 24.5028 16.7702 24.0924Z" fill="#C35F41"/>
</svg>
